<svg width="810" height="358" viewBox="0 0 810 358" fill="none" xmlns="http://www.w3.org/2000/svg">
<path d="M53.688 185.99C50.776 185.99 48.2653 185.234 46.156 183.722C44.0467 182.21 42.4133 179.877 41.256 176.722C40.1173 173.549 39.548 169.489 39.548 164.542C39.548 159.801 40.1173 155.89 41.256 152.81C42.4133 149.712 44.0467 147.406 46.156 145.894C48.2653 144.382 50.776 143.626 53.688 143.626C56.5813 143.626 59.0733 144.382 61.164 145.894C63.2733 147.406 64.888 149.712 66.008 152.81C67.1467 155.89 67.716 159.801 67.716 164.542C67.716 169.489 67.1467 173.549 66.008 176.722C64.888 179.877 63.2733 182.21 61.164 183.722C59.0733 185.234 56.5813 185.99 53.688 185.99ZM53.688 181.118C55.424 181.118 56.936 180.586 58.224 179.522C59.512 178.44 60.5107 176.694 61.22 174.286C61.948 171.86 62.312 168.63 62.312 164.598C62.312 160.734 61.948 157.626 61.22 155.274C60.5107 152.904 59.512 151.186 58.224 150.122C56.936 149.04 55.424 148.498 53.688 148.498C51.9707 148.498 50.4493 149.04 49.124 150.122C47.8173 151.186 46.7907 152.904 46.044 155.274C45.316 157.626 44.952 160.734 44.952 164.598C44.952 168.63 45.316 171.86 46.044 174.286C46.7907 176.694 47.8173 178.44 49.124 179.522C50.4307 180.586 51.952 181.118 53.688 181.118ZM74.8389 185.57C73.8123 185.57 72.9443 185.216 72.2349 184.506C71.5256 183.797 71.1709 182.873 71.1709 181.734C71.1709 180.614 71.5256 179.7 72.2349 178.99C72.9443 178.281 73.8123 177.926 74.8389 177.926C75.8656 177.926 76.7336 178.281 77.4429 178.99C78.1523 179.7 78.5069 180.614 78.5069 181.734C78.5069 182.873 78.1523 183.797 77.4429 184.506C76.7336 185.216 75.8656 185.57 74.8389 185.57ZM97.0806 185.99C94.4672 185.99 92.1059 185.552 89.9966 184.674C87.8872 183.778 86.2166 182.462 84.9846 180.726C83.7712 178.972 83.1646 176.825 83.1646 174.286C83.1646 171.188 83.9766 168.77 85.6006 167.034C87.2246 165.298 89.6232 164.272 92.7966 163.954C90.9112 163.712 89.3712 163.114 88.1766 162.162C86.9819 161.21 86.1046 160.081 85.5446 158.774C84.9846 157.468 84.7046 156.152 84.7046 154.826C84.7046 151.336 85.7499 148.592 87.8406 146.594C89.9499 144.597 93.0299 143.598 97.0806 143.598C101.15 143.598 104.23 144.606 106.321 146.622C108.411 148.638 109.457 151.373 109.457 154.826C109.457 156.152 109.177 157.477 108.617 158.802C108.057 160.109 107.179 161.238 105.985 162.19C104.809 163.142 103.287 163.749 101.421 164.01C104.538 164.309 106.909 165.336 108.533 167.09C110.175 168.826 110.997 171.225 110.997 174.286C110.997 176.825 110.381 178.972 109.149 180.726C107.917 182.462 106.246 183.778 104.137 184.674C102.046 185.552 99.6939 185.99 97.0806 185.99ZM97.0806 181.202C99.5819 181.202 101.654 180.596 103.297 179.382C104.958 178.169 105.789 176.424 105.789 174.146C105.789 171.533 104.977 169.592 103.353 168.322C101.729 167.053 99.6379 166.418 97.0806 166.418C94.5419 166.418 92.4606 167.044 90.8366 168.294C89.2126 169.545 88.4006 171.496 88.4006 174.146C88.4006 176.424 89.2126 178.169 90.8366 179.382C92.4606 180.596 94.5419 181.202 97.0806 181.202ZM97.0806 161.714C98.5739 161.714 99.8526 161.397 100.917 160.762C101.999 160.109 102.83 159.26 103.409 158.214C103.987 157.169 104.277 156.03 104.277 154.798C104.277 152.708 103.642 151.102 102.373 149.982C101.103 148.844 99.3392 148.274 97.0806 148.274C94.8219 148.274 93.0579 148.844 91.7886 149.982C90.5192 151.102 89.8846 152.708 89.8846 154.798C89.8846 156.03 90.1366 157.169 90.6406 158.214C91.1632 159.26 91.9566 160.109 93.0206 160.762C94.0846 161.397 95.4379 161.714 97.0806 161.714ZM135.83 185.486C133.889 185.486 132.209 185.122 130.79 184.394C129.39 183.648 128.308 182.64 127.542 181.37C126.796 180.101 126.422 178.664 126.422 177.058C126.422 175.397 126.749 173.997 127.402 172.858C128.056 171.701 128.998 170.758 130.23 170.03C131.462 169.284 132.956 168.724 134.71 168.35C135.868 168.089 137.09 167.884 138.378 167.734C139.685 167.585 140.936 167.464 142.13 167.37C143.325 167.277 144.342 167.212 145.182 167.174V165.466C145.182 163.021 144.669 161.266 143.642 160.202C142.616 159.12 141.02 158.578 138.854 158.578C137.51 158.578 136.325 158.756 135.298 159.11C134.29 159.465 133.506 160.128 132.946 161.098C132.386 162.05 132.116 163.45 132.134 165.298H127.262C127.038 162.778 127.393 160.688 128.326 159.026C129.26 157.346 130.66 156.096 132.526 155.274C134.393 154.434 136.605 154.014 139.162 154.014C140.618 154.014 142.009 154.192 143.334 154.546C144.66 154.882 145.836 155.461 146.862 156.282C147.889 157.085 148.701 158.186 149.298 159.586C149.896 160.986 150.194 162.741 150.194 164.85V185.15H145.126L145.182 178.514C144.716 180.624 143.661 182.313 142.018 183.582C140.394 184.852 138.332 185.486 135.83 185.486ZM137.034 181.37C138.397 181.37 139.648 181.118 140.786 180.614C141.944 180.11 142.914 179.466 143.698 178.682C144.482 177.898 144.977 177.096 145.182 176.274V170.338C144.1 170.413 142.896 170.544 141.57 170.73C140.245 170.898 139.078 171.104 138.07 171.346C136.054 171.813 134.552 172.438 133.562 173.222C132.592 174.006 132.106 175.136 132.106 176.61C132.106 177.488 132.293 178.29 132.666 179.018C133.058 179.728 133.618 180.297 134.346 180.726C135.074 181.137 135.97 181.352 137.034 181.37Z" fill="white"/>
<path d="M47.2899 277.822C45.9339 277.822 44.6919 277.618 43.5639 277.21C42.4479 276.79 41.5419 276.142 40.8459 275.266C40.1499 274.378 39.7599 273.238 39.6759 271.846H42.9879C43.2039 273.046 43.6779 273.874 44.4099 274.33C45.1539 274.774 46.0959 274.996 47.2359 274.996C48.0159 274.996 48.7179 274.912 49.3419 274.744C49.9779 274.576 50.4819 274.294 50.8539 273.898C51.2259 273.502 51.4119 272.962 51.4119 272.278C51.4119 271.75 51.2979 271.324 51.0699 271C50.8419 270.676 50.5239 270.412 50.1159 270.208C49.7079 269.992 49.2279 269.806 48.6759 269.65C48.1359 269.494 47.5479 269.326 46.9119 269.146C45.7239 268.798 44.6259 268.396 43.6179 267.94C42.6099 267.472 41.7999 266.848 41.1879 266.068C40.5759 265.288 40.2699 264.244 40.2699 262.936C40.2699 261.328 40.8819 260.026 42.1059 259.03C43.3299 258.022 44.9379 257.518 46.9299 257.518C48.1899 257.518 49.3239 257.71 50.3319 258.094C51.3519 258.478 52.1799 259.096 52.8159 259.948C53.4639 260.788 53.8599 261.916 54.0039 263.332H50.7099C50.5899 262.684 50.3679 262.138 50.0439 261.694C49.7319 261.25 49.3179 260.914 48.8019 260.686C48.2859 260.458 47.6559 260.344 46.9119 260.344C46.2879 260.344 45.7239 260.434 45.2199 260.614C44.7159 260.782 44.3139 261.052 44.0139 261.424C43.7139 261.796 43.5639 262.288 43.5639 262.9C43.5639 263.572 43.7439 264.112 44.1039 264.52C44.4639 264.928 44.9739 265.27 45.6339 265.546C46.2939 265.81 47.0679 266.074 47.9559 266.338C48.6399 266.554 49.3719 266.782 50.1519 267.022C50.9319 267.25 51.6639 267.556 52.3479 267.94C53.0439 268.324 53.6079 268.84 54.0399 269.488C54.4839 270.124 54.7059 270.958 54.7059 271.99C54.7059 273.838 54.0219 275.272 52.6539 276.292C51.2859 277.312 49.4979 277.822 47.2899 277.822ZM59.0335 277.516V257.986H62.4175L62.3635 277.516H59.0335ZM60.7435 254.836C60.0835 254.836 59.5195 254.608 59.0515 254.152C58.5955 253.696 58.3675 253.108 58.3675 252.388C58.3675 251.68 58.5955 251.098 59.0515 250.642C59.5195 250.186 60.0835 249.958 60.7435 249.958C61.3915 249.958 61.9435 250.186 62.3995 250.642C62.8675 251.098 63.1015 251.68 63.1015 252.388C63.1015 253.108 62.8675 253.696 62.3995 254.152C61.9315 254.608 61.3795 254.836 60.7435 254.836ZM65.5864 277.516L74.3344 263.314C74.7904 262.57 75.2224 261.976 75.6304 261.532C76.0384 261.076 76.4764 260.71 76.9444 260.434L77.3404 260.56C76.6804 260.596 76.0084 260.638 75.3244 260.686C74.6404 260.722 73.9924 260.74 73.3804 260.74H66.8464V257.878H81.2284L72.3544 272.26C71.9344 272.944 71.4904 273.538 71.0224 274.042C70.5544 274.534 70.0684 274.93 69.5644 275.23L69.4204 274.834C70.0204 274.798 70.6324 274.756 71.2564 274.708C71.8924 274.66 72.4984 274.636 73.0744 274.636H81.1024V277.516H65.5864ZM92.1077 277.786C90.3197 277.786 88.7477 277.396 87.3917 276.616C86.0477 275.836 85.0037 274.69 84.2597 273.178C83.5157 271.654 83.1437 269.794 83.1437 267.598C83.1437 265.486 83.5277 263.674 84.2957 262.162C85.0637 260.65 86.1197 259.492 87.4637 258.688C88.8077 257.884 90.3377 257.482 92.0537 257.482C93.7577 257.482 95.2157 257.848 96.4277 258.58C97.6517 259.312 98.5937 260.362 99.2537 261.73C99.9137 263.086 100.238 264.712 100.226 266.608C100.226 266.992 100.214 267.31 100.19 267.562C100.166 267.814 100.148 268.078 100.136 268.354H86.4917C86.5757 270.514 87.1157 272.152 88.1117 273.268C89.1197 274.372 90.4037 274.924 91.9637 274.924C93.2837 274.924 94.3037 274.648 95.0237 274.096C95.7557 273.532 96.2177 272.812 96.4097 271.936H99.6857C99.6017 273.184 99.2177 274.246 98.5337 275.122C97.8617 275.998 96.9737 276.664 95.8697 277.12C94.7657 277.564 93.5117 277.786 92.1077 277.786ZM88.2737 265.834H96.8597C96.8357 264.154 96.4217 262.834 95.6177 261.874C94.8137 260.914 93.5837 260.434 91.9277 260.434C90.1877 260.434 88.8677 261.028 87.9677 262.216C87.0677 263.392 86.5757 265.018 86.4917 267.094C86.5877 266.602 86.7797 266.272 87.0677 266.104C87.3677 265.924 87.7697 265.834 88.2737 265.834ZM118.243 277.786C116.515 277.786 114.997 277.396 113.689 276.616C112.393 275.836 111.379 274.69 110.647 273.178C109.927 271.654 109.567 269.788 109.567 267.58C109.567 265.492 109.951 263.692 110.719 262.18C111.487 260.668 112.531 259.51 113.851 258.706C115.183 257.89 116.671 257.482 118.315 257.482C120.103 257.482 121.645 257.89 122.941 258.706C124.249 259.51 125.257 260.668 125.965 262.18C126.673 263.692 127.027 265.492 127.027 267.58C127.027 269.788 126.631 271.654 125.839 273.178C125.059 274.69 124.003 275.836 122.671 276.616C121.339 277.396 119.863 277.786 118.243 277.786ZM118.315 274.834C119.923 274.834 121.207 274.234 122.167 273.034C123.127 271.834 123.607 270.016 123.607 267.58C123.607 265.252 123.133 263.482 122.185 262.27C121.249 261.046 119.935 260.434 118.243 260.434C116.647 260.434 115.369 261.046 114.409 262.27C113.461 263.482 112.987 265.252 112.987 267.58C112.987 269.932 113.467 271.732 114.427 272.98C115.399 274.216 116.695 274.834 118.315 274.834ZM132.655 277.516V262.612C132.655 262.228 132.733 261.868 132.889 261.532C133.045 261.196 133.273 260.98 133.573 260.884L132.655 258.67V255.538C132.655 254.002 132.949 252.73 133.537 251.722C134.137 250.702 134.935 249.946 135.931 249.454C136.939 248.95 138.061 248.698 139.297 248.698C139.897 248.698 140.395 248.716 140.791 248.752C141.187 248.788 141.529 248.824 141.817 248.86V252.1C141.553 251.992 141.229 251.914 140.845 251.866C140.473 251.818 140.005 251.794 139.441 251.794C138.709 251.794 138.079 251.92 137.551 252.172C137.035 252.412 136.639 252.844 136.363 253.468C136.087 254.08 135.949 254.95 135.949 256.078V277.516H132.655ZM129.541 260.884V257.86H140.647V260.884H129.541ZM157.399 277.822C156.043 277.822 154.801 277.618 153.673 277.21C152.557 276.79 151.651 276.142 150.955 275.266C150.259 274.378 149.869 273.238 149.785 271.846H153.097C153.313 273.046 153.787 273.874 154.519 274.33C155.263 274.774 156.205 274.996 157.345 274.996C158.125 274.996 158.827 274.912 159.451 274.744C160.087 274.576 160.591 274.294 160.963 273.898C161.335 273.502 161.521 272.962 161.521 272.278C161.521 271.75 161.407 271.324 161.179 271C160.951 270.676 160.633 270.412 160.225 270.208C159.817 269.992 159.337 269.806 158.785 269.65C158.245 269.494 157.657 269.326 157.021 269.146C155.833 268.798 154.735 268.396 153.727 267.94C152.719 267.472 151.909 266.848 151.297 266.068C150.685 265.288 150.379 264.244 150.379 262.936C150.379 261.328 150.991 260.026 152.215 259.03C153.439 258.022 155.047 257.518 157.039 257.518C158.299 257.518 159.433 257.71 160.441 258.094C161.461 258.478 162.289 259.096 162.925 259.948C163.573 260.788 163.969 261.916 164.113 263.332H160.819C160.699 262.684 160.477 262.138 160.153 261.694C159.841 261.25 159.427 260.914 158.911 260.686C158.395 260.458 157.765 260.344 157.021 260.344C156.397 260.344 155.833 260.434 155.329 260.614C154.825 260.782 154.423 261.052 154.123 261.424C153.823 261.796 153.673 262.288 153.673 262.9C153.673 263.572 153.853 264.112 154.213 264.52C154.573 264.928 155.083 265.27 155.743 265.546C156.403 265.81 157.177 266.074 158.065 266.338C158.749 266.554 159.481 266.782 160.261 267.022C161.041 267.25 161.773 267.556 162.457 267.94C163.153 268.324 163.717 268.84 164.149 269.488C164.593 270.124 164.815 270.958 164.815 271.99C164.815 273.838 164.131 275.272 162.763 276.292C161.395 277.312 159.607 277.822 157.399 277.822ZM168.978 277.516V257.86H171.822L172.2 265.276L171.876 263.782C172.032 262.618 172.356 261.562 172.848 260.614C173.34 259.654 174.036 258.892 174.936 258.328C175.836 257.752 176.97 257.464 178.338 257.464C179.934 257.464 181.2 257.914 182.136 258.814C183.084 259.702 183.666 261.07 183.882 262.918L183.972 263.188V277.516H180.624V265.276C180.624 264.16 180.504 263.26 180.264 262.576C180.036 261.892 179.664 261.394 179.148 261.082C178.632 260.758 177.954 260.596 177.114 260.596C176.058 260.596 175.128 260.89 174.324 261.478C173.52 262.066 172.86 262.876 172.344 263.908V277.516H168.978ZM192.27 277.516V265.258C192.27 264.154 192.15 263.26 191.91 262.576C191.67 261.892 191.292 261.394 190.776 261.082C190.272 260.758 189.6 260.596 188.76 260.596C187.704 260.596 186.774 260.89 185.97 261.478C185.166 262.066 184.5 262.876 183.972 263.908L183.9 265.276L183.576 263.998C183.708 262.858 184.014 261.79 184.494 260.794C184.974 259.798 185.658 258.994 186.546 258.382C187.446 257.77 188.574 257.464 189.93 257.464C191.718 257.464 193.11 258.028 194.106 259.156C195.114 260.284 195.618 261.952 195.618 264.16V277.516H192.27ZM206.18 277.732C204.932 277.732 203.852 277.498 202.94 277.03C202.04 276.55 201.344 275.902 200.852 275.086C200.372 274.27 200.132 273.346 200.132 272.314C200.132 271.246 200.342 270.346 200.762 269.614C201.182 268.87 201.788 268.264 202.58 267.796C203.372 267.316 204.332 266.956 205.46 266.716C206.204 266.548 206.99 266.416 207.818 266.32C208.658 266.224 209.462 266.146 210.23 266.086C210.998 266.026 211.652 265.984 212.192 265.96V264.862C212.192 263.29 211.862 262.162 211.202 261.478C210.542 260.782 209.516 260.434 208.124 260.434C207.26 260.434 206.498 260.548 205.838 260.776C205.19 261.004 204.686 261.43 204.326 262.054C203.966 262.666 203.792 263.566 203.804 264.754H200.672C200.528 263.134 200.756 261.79 201.356 260.722C201.956 259.642 202.856 258.838 204.056 258.31C205.256 257.77 206.678 257.5 208.322 257.5C209.258 257.5 210.152 257.614 211.004 257.842C211.856 258.058 212.612 258.43 213.272 258.958C213.932 259.474 214.454 260.182 214.838 261.082C215.222 261.982 215.414 263.11 215.414 264.466V277.516H212.156L212.192 273.25C211.892 274.606 211.214 275.692 210.158 276.508C209.114 277.324 207.788 277.732 206.18 277.732ZM206.954 275.086C207.83 275.086 208.634 274.924 209.366 274.6C210.11 274.276 210.734 273.862 211.238 273.358C211.742 272.854 212.06 272.338 212.192 271.81V267.994C211.496 268.042 210.722 268.126 209.87 268.246C209.018 268.354 208.268 268.486 207.62 268.642C206.324 268.942 205.358 269.344 204.722 269.848C204.098 270.352 203.786 271.078 203.786 272.026C203.786 272.59 203.906 273.106 204.146 273.574C204.398 274.03 204.758 274.396 205.226 274.672C205.694 274.936 206.27 275.074 206.954 275.086ZM221.15 277.516V249.526H224.498V277.516H221.15ZM230.467 277.516V249.526H233.815V277.516H230.467ZM247.44 277.516V262.612C247.44 262.228 247.518 261.868 247.674 261.532C247.83 261.196 248.058 260.98 248.358 260.884L247.44 258.67V255.538C247.44 254.002 247.734 252.73 248.322 251.722C248.922 250.702 249.72 249.946 250.716 249.454C251.724 248.95 252.846 248.698 254.082 248.698C254.682 248.698 255.18 248.716 255.576 248.752C255.972 248.788 256.314 248.824 256.602 248.86V252.1C256.338 251.992 256.014 251.914 255.63 251.866C255.258 251.818 254.79 251.794 254.226 251.794C253.494 251.794 252.864 251.92 252.336 252.172C251.82 252.412 251.424 252.844 251.148 253.468C250.872 254.08 250.734 254.95 250.734 256.078V277.516H247.44ZM244.326 260.884V257.86H255.432V260.884H244.326ZM259.32 277.516V249.526H262.668V277.516H259.32ZM273.434 277.732C272.186 277.732 271.106 277.498 270.194 277.03C269.294 276.55 268.598 275.902 268.106 275.086C267.626 274.27 267.386 273.346 267.386 272.314C267.386 271.246 267.596 270.346 268.016 269.614C268.436 268.87 269.042 268.264 269.834 267.796C270.626 267.316 271.586 266.956 272.714 266.716C273.458 266.548 274.244 266.416 275.072 266.32C275.912 266.224 276.716 266.146 277.484 266.086C278.252 266.026 278.906 265.984 279.446 265.96V264.862C279.446 263.29 279.116 262.162 278.456 261.478C277.796 260.782 276.77 260.434 275.378 260.434C274.514 260.434 273.752 260.548 273.092 260.776C272.444 261.004 271.94 261.43 271.58 262.054C271.22 262.666 271.046 263.566 271.058 264.754H267.926C267.782 263.134 268.01 261.79 268.61 260.722C269.21 259.642 270.11 258.838 271.31 258.31C272.51 257.77 273.932 257.5 275.576 257.5C276.512 257.5 277.406 257.614 278.258 257.842C279.11 258.058 279.866 258.43 280.526 258.958C281.186 259.474 281.708 260.182 282.092 261.082C282.476 261.982 282.668 263.11 282.668 264.466V277.516H279.41L279.446 273.25C279.146 274.606 278.468 275.692 277.412 276.508C276.368 277.324 275.042 277.732 273.434 277.732ZM274.208 275.086C275.084 275.086 275.888 274.924 276.62 274.6C277.364 274.276 277.988 273.862 278.492 273.358C278.996 272.854 279.314 272.338 279.446 271.81V267.994C278.75 268.042 277.976 268.126 277.124 268.246C276.272 268.354 275.522 268.486 274.874 268.642C273.578 268.942 272.612 269.344 271.976 269.848C271.352 270.352 271.04 271.078 271.04 272.026C271.04 272.59 271.16 273.106 271.4 273.574C271.652 274.03 272.012 274.396 272.48 274.672C272.948 274.936 273.524 275.074 274.208 275.086ZM293.513 277.786C291.989 277.786 290.825 277.396 290.021 276.616C289.229 275.824 288.833 274.702 288.833 273.25V262.594C288.833 262.21 288.911 261.856 289.067 261.532C289.223 261.196 289.451 260.98 289.751 260.884L288.833 258.652V258.04L289.643 252.172H292.145V272.692C292.145 273.46 292.325 273.982 292.685 274.258C293.045 274.522 293.663 274.654 294.539 274.654C295.175 274.654 295.715 274.654 296.159 274.654C296.603 274.642 297.065 274.618 297.545 274.582V277.534C296.885 277.654 296.201 277.726 295.493 277.75C294.797 277.774 294.137 277.786 293.513 277.786ZM285.971 260.884V257.86H297.383V260.884H285.971Z" fill="white"/>
<path d="M39.952 238.232V218.576H42.796L43.156 226.136L42.76 225.11C42.844 224.366 43.006 223.592 43.246 222.788C43.498 221.984 43.852 221.234 44.308 220.538C44.776 219.83 45.37 219.26 46.09 218.828C46.822 218.396 47.716 218.18 48.772 218.18C48.976 218.18 49.168 218.192 49.348 218.216C49.54 218.24 49.726 218.27 49.906 218.306V221.852C49.606 221.756 49.288 221.696 48.952 221.672C48.628 221.636 48.322 221.618 48.034 221.618C47.446 221.618 46.852 221.732 46.252 221.96C45.652 222.188 45.094 222.554 44.578 223.058C44.062 223.55 43.636 224.192 43.3 224.984V238.232H39.952ZM57.9244 238.448C56.6764 238.448 55.5964 238.214 54.6844 237.746C53.7844 237.266 53.0884 236.618 52.5964 235.802C52.1164 234.986 51.8764 234.062 51.8764 233.03C51.8764 231.962 52.0864 231.062 52.5064 230.33C52.9264 229.586 53.5324 228.98 54.3244 228.512C55.1164 228.032 56.0764 227.672 57.2044 227.432C57.9484 227.264 58.7344 227.132 59.5624 227.036C60.4024 226.94 61.2064 226.862 61.9744 226.802C62.7424 226.742 63.3964 226.7 63.9364 226.676V225.578C63.9364 224.006 63.6064 222.878 62.9464 222.194C62.2864 221.498 61.2604 221.15 59.8684 221.15C59.0044 221.15 58.2424 221.264 57.5824 221.492C56.9344 221.72 56.4304 222.146 56.0704 222.77C55.7104 223.382 55.5364 224.282 55.5484 225.47H52.4164C52.2724 223.85 52.5004 222.506 53.1004 221.438C53.7004 220.358 54.6004 219.554 55.8004 219.026C57.0004 218.486 58.4224 218.216 60.0664 218.216C61.0024 218.216 61.8964 218.33 62.7484 218.558C63.6004 218.774 64.3564 219.146 65.0164 219.674C65.6764 220.19 66.1984 220.898 66.5824 221.798C66.9664 222.698 67.1584 223.826 67.1584 225.182V238.232H63.9004L63.9364 233.966C63.6364 235.322 62.9584 236.408 61.9024 237.224C60.8584 238.04 59.5324 238.448 57.9244 238.448ZM58.6984 235.802C59.5744 235.802 60.3784 235.64 61.1104 235.316C61.8544 234.992 62.4784 234.578 62.9824 234.074C63.4864 233.57 63.8044 233.054 63.9364 232.526V228.71C63.2404 228.758 62.4664 228.842 61.6144 228.962C60.7624 229.07 60.0124 229.202 59.3644 229.358C58.0684 229.658 57.1024 230.06 56.4664 230.564C55.8424 231.068 55.5304 231.794 55.5304 232.742C55.5304 233.306 55.6504 233.822 55.8904 234.29C56.1424 234.746 56.5024 235.112 56.9704 235.388C57.4384 235.652 58.0144 235.79 58.6984 235.802ZM78.0034 238.502C76.4794 238.502 75.3154 238.112 74.5114 237.332C73.7194 236.54 73.3234 235.418 73.3234 233.966V223.31C73.3234 222.926 73.4014 222.572 73.5574 222.248C73.7134 221.912 73.9414 221.696 74.2414 221.6L73.3234 219.368V218.756L74.1334 212.888H76.6354V233.408C76.6354 234.176 76.8154 234.698 77.1754 234.974C77.5354 235.238 78.1534 235.37 79.0294 235.37C79.6654 235.37 80.2054 235.37 80.6494 235.37C81.0934 235.358 81.5554 235.334 82.0354 235.298V238.25C81.3754 238.37 80.6914 238.442 79.9834 238.466C79.2874 238.49 78.6274 238.502 78.0034 238.502ZM70.4614 221.6V218.576H81.8734V221.6H70.4614ZM85.8557 238.232V218.702H89.2397L89.1857 238.232H85.8557ZM87.5657 215.552C86.9057 215.552 86.3417 215.324 85.8737 214.868C85.4177 214.412 85.1897 213.824 85.1897 213.104C85.1897 212.396 85.4177 211.814 85.8737 211.358C86.3417 210.902 86.9057 210.674 87.5657 210.674C88.2137 210.674 88.7657 210.902 89.2217 211.358C89.6897 211.814 89.9237 212.396 89.9237 213.104C89.9237 213.824 89.6897 214.412 89.2217 214.868C88.7537 215.324 88.2017 215.552 87.5657 215.552ZM102.526 238.502C100.798 238.502 99.2796 238.112 97.9716 237.332C96.6756 236.552 95.6616 235.406 94.9296 233.894C94.2096 232.37 93.8496 230.504 93.8496 228.296C93.8496 226.208 94.2336 224.408 95.0016 222.896C95.7696 221.384 96.8136 220.226 98.1336 219.422C99.4656 218.606 100.954 218.198 102.598 218.198C104.386 218.198 105.928 218.606 107.224 219.422C108.532 220.226 109.54 221.384 110.248 222.896C110.956 224.408 111.31 226.208 111.31 228.296C111.31 230.504 110.914 232.37 110.122 233.894C109.342 235.406 108.286 236.552 106.954 237.332C105.622 238.112 104.146 238.502 102.526 238.502ZM102.598 235.55C104.206 235.55 105.49 234.95 106.45 233.75C107.41 232.55 107.89 230.732 107.89 228.296C107.89 225.968 107.416 224.198 106.468 222.986C105.532 221.762 104.218 221.15 102.526 221.15C100.93 221.15 99.6516 221.762 98.6916 222.986C97.7436 224.198 97.2696 225.968 97.2696 228.296C97.2696 230.648 97.7496 232.448 98.7096 233.696C99.6816 234.932 100.978 235.55 102.598 235.55ZM129.919 238.556C128.095 238.556 126.511 238.142 125.167 237.314C123.823 236.486 122.785 235.31 122.053 233.786C121.321 232.262 120.955 230.468 120.955 228.404C120.955 226.232 121.327 224.39 122.071 222.878C122.827 221.366 123.865 220.214 125.185 219.422C126.517 218.618 128.035 218.216 129.739 218.216C131.371 218.216 132.757 218.534 133.897 219.17C135.037 219.794 135.907 220.628 136.507 221.672C137.119 222.716 137.443 223.868 137.479 225.128H134.185C134.161 224.648 134.059 224.174 133.879 223.706C133.699 223.238 133.429 222.818 133.069 222.446C132.709 222.062 132.247 221.756 131.683 221.528C131.131 221.288 130.465 221.168 129.685 221.168C127.873 221.156 126.535 221.786 125.671 223.058C124.807 224.33 124.375 226.076 124.375 228.296C124.375 230.672 124.855 232.484 125.815 233.732C126.775 234.98 128.215 235.604 130.135 235.604C130.879 235.604 131.545 235.436 132.133 235.1C132.721 234.764 133.189 234.326 133.537 233.786C133.897 233.246 134.089 232.67 134.113 232.058H137.407C137.371 233.294 137.023 234.404 136.363 235.388C135.703 236.372 134.815 237.146 133.699 237.71C132.583 238.274 131.323 238.556 129.919 238.556ZM149.073 238.502C147.345 238.502 145.827 238.112 144.519 237.332C143.223 236.552 142.209 235.406 141.477 233.894C140.757 232.37 140.397 230.504 140.397 228.296C140.397 226.208 140.781 224.408 141.549 222.896C142.317 221.384 143.361 220.226 144.681 219.422C146.013 218.606 147.501 218.198 149.145 218.198C150.933 218.198 152.475 218.606 153.771 219.422C155.079 220.226 156.087 221.384 156.795 222.896C157.503 224.408 157.857 226.208 157.857 228.296C157.857 230.504 157.461 232.37 156.669 233.894C155.889 235.406 154.833 236.552 153.501 237.332C152.169 238.112 150.693 238.502 149.073 238.502ZM149.145 235.55C150.753 235.55 152.037 234.95 152.997 233.75C153.957 232.55 154.437 230.732 154.437 228.296C154.437 225.968 153.963 224.198 153.015 222.986C152.079 221.762 150.765 221.15 149.073 221.15C147.477 221.15 146.199 221.762 145.239 222.986C144.291 224.198 143.817 225.968 143.817 228.296C143.817 230.648 144.297 232.448 145.257 233.696C146.229 234.932 147.525 235.55 149.145 235.55ZM162.401 238.232V218.576H165.245L165.623 225.992L165.299 224.498C165.455 223.334 165.779 222.278 166.271 221.33C166.763 220.37 167.459 219.608 168.359 219.044C169.259 218.468 170.393 218.18 171.761 218.18C173.357 218.18 174.623 218.63 175.559 219.53C176.507 220.418 177.089 221.786 177.305 223.634L177.395 223.904V238.232H174.047V225.992C174.047 224.876 173.927 223.976 173.687 223.292C173.459 222.608 173.087 222.11 172.571 221.798C172.055 221.474 171.377 221.312 170.537 221.312C169.481 221.312 168.551 221.606 167.747 222.194C166.943 222.782 166.283 223.592 165.767 224.624V238.232H162.401ZM185.693 238.232V225.974C185.693 224.87 185.573 223.976 185.333 223.292C185.093 222.608 184.715 222.11 184.199 221.798C183.695 221.474 183.023 221.312 182.183 221.312C181.127 221.312 180.197 221.606 179.393 222.194C178.589 222.782 177.923 223.592 177.395 224.624L177.323 225.992L176.999 224.714C177.131 223.574 177.437 222.506 177.917 221.51C178.397 220.514 179.081 219.71 179.969 219.098C180.869 218.486 181.997 218.18 183.353 218.18C185.141 218.18 186.533 218.744 187.529 219.872C188.537 221 189.041 222.668 189.041 224.876V238.232H185.693ZM203.366 238.448C202.094 238.448 201.068 238.226 200.288 237.782C199.52 237.326 198.95 236.804 198.578 236.216C198.206 235.628 197.984 235.136 197.912 234.74L196.85 234.56L198.128 233.624C198.236 233.912 198.47 234.218 198.83 234.542C199.19 234.866 199.676 235.148 200.288 235.388C200.912 235.616 201.65 235.73 202.502 235.73C203.978 235.73 205.202 235.124 206.174 233.912C207.158 232.7 207.65 230.798 207.65 228.206C207.65 225.878 207.194 224.126 206.282 222.95C205.382 221.762 204.23 221.168 202.826 221.168C201.878 221.168 201.074 221.318 200.414 221.618C199.766 221.918 199.25 222.284 198.866 222.716C198.494 223.136 198.248 223.544 198.128 223.94V222.608C198.152 222.224 198.272 221.786 198.488 221.294C198.704 220.79 199.034 220.304 199.478 219.836C199.934 219.368 200.516 218.984 201.224 218.684C201.932 218.372 202.796 218.216 203.816 218.216C205.316 218.216 206.612 218.618 207.704 219.422C208.796 220.226 209.636 221.36 210.224 222.824C210.812 224.288 211.106 226.004 211.106 227.972C211.106 229.76 210.884 231.314 210.44 232.634C209.996 233.942 209.396 235.028 208.64 235.892C207.896 236.756 207.062 237.398 206.138 237.818C205.226 238.238 204.302 238.448 203.366 238.448ZM194.798 245.486V218.576H198.092L198.128 221.24V233.624L197.912 234.74L198.128 238.25L198.146 245.486H194.798ZM220.733 238.448C219.485 238.448 218.405 238.214 217.493 237.746C216.593 237.266 215.897 236.618 215.405 235.802C214.925 234.986 214.685 234.062 214.685 233.03C214.685 231.962 214.895 231.062 215.315 230.33C215.735 229.586 216.341 228.98 217.133 228.512C217.925 228.032 218.885 227.672 220.013 227.432C220.757 227.264 221.543 227.132 222.371 227.036C223.211 226.94 224.015 226.862 224.783 226.802C225.551 226.742 226.205 226.7 226.745 226.676V225.578C226.745 224.006 226.415 222.878 225.755 222.194C225.095 221.498 224.069 221.15 222.677 221.15C221.813 221.15 221.051 221.264 220.391 221.492C219.743 221.72 219.239 222.146 218.879 222.77C218.519 223.382 218.345 224.282 218.357 225.47H215.225C215.081 223.85 215.309 222.506 215.909 221.438C216.509 220.358 217.409 219.554 218.609 219.026C219.809 218.486 221.231 218.216 222.875 218.216C223.811 218.216 224.705 218.33 225.557 218.558C226.409 218.774 227.165 219.146 227.825 219.674C228.485 220.19 229.007 220.898 229.391 221.798C229.775 222.698 229.967 223.826 229.967 225.182V238.232H226.709L226.745 233.966C226.445 235.322 225.767 236.408 224.711 237.224C223.667 238.04 222.341 238.448 220.733 238.448ZM221.507 235.802C222.383 235.802 223.187 235.64 223.919 235.316C224.663 234.992 225.287 234.578 225.791 234.074C226.295 233.57 226.613 233.054 226.745 232.526V228.71C226.049 228.758 225.275 228.842 224.423 228.962C223.571 229.07 222.821 229.202 222.173 229.358C220.877 229.658 219.911 230.06 219.275 230.564C218.651 231.068 218.339 231.794 218.339 232.742C218.339 233.306 218.459 233.822 218.699 234.29C218.951 234.746 219.311 235.112 219.779 235.388C220.247 235.652 220.823 235.79 221.507 235.802ZM235.632 238.232V218.576H238.476L238.836 226.136L238.44 225.11C238.524 224.366 238.686 223.592 238.926 222.788C239.178 221.984 239.532 221.234 239.988 220.538C240.456 219.83 241.05 219.26 241.77 218.828C242.502 218.396 243.396 218.18 244.452 218.18C244.656 218.18 244.848 218.192 245.028 218.216C245.22 218.24 245.406 218.27 245.586 218.306V221.852C245.286 221.756 244.968 221.696 244.632 221.672C244.308 221.636 244.002 221.618 243.714 221.618C243.126 221.618 242.532 221.732 241.932 221.96C241.332 222.188 240.774 222.554 240.258 223.058C239.742 223.55 239.316 224.192 238.98 224.984V238.232H235.632ZM248.981 238.232V218.702H252.365L252.311 238.232H248.981ZM250.691 215.552C250.031 215.552 249.467 215.324 248.999 214.868C248.543 214.412 248.315 213.824 248.315 213.104C248.315 212.396 248.543 211.814 248.999 211.358C249.467 210.902 250.031 210.674 250.691 210.674C251.339 210.674 251.891 210.902 252.347 211.358C252.815 211.814 253.049 212.396 253.049 213.104C253.049 213.824 252.815 214.412 252.347 214.868C251.879 215.324 251.327 215.552 250.691 215.552ZM264.202 238.538C262.846 238.538 261.604 238.334 260.476 237.926C259.36 237.506 258.454 236.858 257.758 235.982C257.062 235.094 256.672 233.954 256.588 232.562H259.9C260.116 233.762 260.59 234.59 261.322 235.046C262.066 235.49 263.008 235.712 264.148 235.712C264.928 235.712 265.63 235.628 266.254 235.46C266.89 235.292 267.394 235.01 267.766 234.614C268.138 234.218 268.324 233.678 268.324 232.994C268.324 232.466 268.21 232.04 267.982 231.716C267.754 231.392 267.436 231.128 267.028 230.924C266.62 230.708 266.14 230.522 265.588 230.366C265.048 230.21 264.46 230.042 263.824 229.862C262.636 229.514 261.538 229.112 260.53 228.656C259.522 228.188 258.712 227.564 258.1 226.784C257.488 226.004 257.182 224.96 257.182 223.652C257.182 222.044 257.794 220.742 259.018 219.746C260.242 218.738 261.85 218.234 263.842 218.234C265.102 218.234 266.236 218.426 267.244 218.81C268.264 219.194 269.092 219.812 269.728 220.664C270.376 221.504 270.772 222.632 270.916 224.048H267.622C267.502 223.4 267.28 222.854 266.956 222.41C266.644 221.966 266.23 221.63 265.714 221.402C265.198 221.174 264.568 221.06 263.824 221.06C263.2 221.06 262.636 221.15 262.132 221.33C261.628 221.498 261.226 221.768 260.926 222.14C260.626 222.512 260.476 223.004 260.476 223.616C260.476 224.288 260.656 224.828 261.016 225.236C261.376 225.644 261.886 225.986 262.546 226.262C263.206 226.526 263.98 226.79 264.868 227.054C265.552 227.27 266.284 227.498 267.064 227.738C267.844 227.966 268.576 228.272 269.26 228.656C269.956 229.04 270.52 229.556 270.952 230.204C271.396 230.84 271.618 231.674 271.618 232.706C271.618 234.554 270.934 235.988 269.566 237.008C268.198 238.028 266.41 238.538 264.202 238.538ZM283.369 238.502C281.641 238.502 280.123 238.112 278.815 237.332C277.519 236.552 276.505 235.406 275.773 233.894C275.053 232.37 274.693 230.504 274.693 228.296C274.693 226.208 275.077 224.408 275.845 222.896C276.613 221.384 277.657 220.226 278.977 219.422C280.309 218.606 281.797 218.198 283.441 218.198C285.229 218.198 286.771 218.606 288.067 219.422C289.375 220.226 290.383 221.384 291.091 222.896C291.799 224.408 292.153 226.208 292.153 228.296C292.153 230.504 291.757 232.37 290.965 233.894C290.185 235.406 289.129 236.552 287.797 237.332C286.465 238.112 284.989 238.502 283.369 238.502ZM283.441 235.55C285.049 235.55 286.333 234.95 287.293 233.75C288.253 232.55 288.733 230.732 288.733 228.296C288.733 225.968 288.259 224.198 287.311 222.986C286.375 221.762 285.061 221.15 283.369 221.15C281.773 221.15 280.495 221.762 279.535 222.986C278.587 224.198 278.113 225.968 278.113 228.296C278.113 230.648 278.593 232.448 279.553 233.696C280.525 234.932 281.821 235.55 283.441 235.55ZM296.698 238.232V218.576H299.542L299.902 225.992L299.578 224.498C299.734 223.334 300.058 222.278 300.55 221.33C301.054 220.37 301.756 219.608 302.656 219.044C303.568 218.468 304.714 218.18 306.094 218.18C307.918 218.18 309.334 218.744 310.342 219.872C311.362 220.988 311.872 222.656 311.872 224.876V238.232H308.524V225.974C308.524 224.858 308.398 223.958 308.146 223.274C307.906 222.59 307.516 222.092 306.976 221.78C306.448 221.468 305.74 221.312 304.852 221.312C303.784 221.312 302.842 221.606 302.026 222.194C301.222 222.782 300.562 223.592 300.046 224.624V238.232H296.698ZM319.543 225.002C318.883 225.002 318.325 224.774 317.869 224.318C317.413 223.862 317.185 223.268 317.185 222.536C317.185 221.816 317.413 221.228 317.869 220.772C318.325 220.316 318.883 220.088 319.543 220.088C320.203 220.088 320.761 220.316 321.217 220.772C321.673 221.228 321.901 221.816 321.901 222.536C321.901 223.268 321.673 223.862 321.217 224.318C320.761 224.774 320.203 225.002 319.543 225.002ZM319.543 238.502C318.883 238.502 318.325 238.274 317.869 237.818C317.413 237.362 317.185 236.768 317.185 236.036C317.185 235.316 317.413 234.728 317.869 234.272C318.325 233.816 318.883 233.588 319.543 233.588C320.203 233.588 320.761 233.816 321.217 234.272C321.673 234.728 321.901 235.316 321.901 236.036C321.901 236.768 321.673 237.362 321.217 237.818C320.761 238.274 320.203 238.502 319.543 238.502Z" fill="white"/>
<path d="M356.176 202.588L581.407 88.0623L806.638 202.588L581.407 317.113L356.176 202.588Z" stroke="#FF8B59" stroke-width="3"/>
<g clip-path="url(#clip0_995_44009)">
<path d="M738.398 131.095L509.242 2.27709L360.383 88.9561L589.536 217.777L645.973 184.913L706.731 219.067L799.152 165.249L738.398 131.095Z" fill="black" stroke="white" stroke-width="3" stroke-miterlimit="10"/>
<path d="M589.536 217.778L563.22 202.983L671.27 140.067L697.585 154.862L589.536 217.778Z" fill="black" stroke="white" stroke-width="3" stroke-miterlimit="10"/>
<path d="M436.855 50.5563L476.645 72.9225L413.043 109.955L373.256 87.5893L436.855 50.5563Z" fill="black" stroke="white" stroke-width="3" stroke-miterlimit="10"/>
<path d="M434.571 69.2314L425.476 64.1202C424.098 63.3479 424.181 62.0228 425.657 61.1628L431.218 57.926C432.695 57.066 435.006 56.9966 436.383 57.7719L445.479 62.8831C446.857 63.6554 446.774 64.9805 445.298 65.8405L439.737 69.0773C438.26 69.9373 435.949 70.0067 434.571 69.2314Z" fill="black" stroke="white" stroke-width="3" stroke-miterlimit="10"/>
<path d="M453.142 79.6689L444.046 74.5577C442.668 73.7854 442.751 72.4603 444.227 71.6003L449.788 68.3635C451.265 67.5035 453.576 67.4341 454.954 68.2094L464.049 73.3206C465.427 74.0929 465.344 75.418 463.868 76.278L458.307 79.5148C456.83 80.3748 454.519 80.4442 453.142 79.6689Z" fill="black" stroke="white" stroke-width="3" stroke-miterlimit="10"/>
<path d="M413.043 109.955L373.256 87.5891L406.474 68.2455L457.59 84.0184L413.043 109.955Z" fill="black" stroke="white" stroke-width="3" stroke-miterlimit="10"/>
<path d="M480.677 92.5123L466.555 84.5764L481.692 75.7616L495.814 83.6974L480.677 92.5123Z" fill="black" stroke="white" stroke-width="3" stroke-miterlimit="10"/>
<path d="M500.328 81.0712L436.015 44.9163L463.192 29.0932L527.505 65.2451L500.328 81.0712Z" fill="black" stroke="white" stroke-width="3" stroke-miterlimit="10"/>
<path d="M510.094 87.9354L499.124 81.7692L529.051 64.3457L540.02 70.5119L510.094 87.9354Z" fill="black" stroke="white" stroke-width="3" stroke-miterlimit="10"/>
<path d="M545.911 148.255L517.833 132.471L537.645 120.936L565.723 136.72L545.911 148.255Z" fill="black" stroke="white" stroke-width="3" stroke-miterlimit="10"/>
<path d="M511.074 173.668L474.102 152.883L491.86 142.543L528.832 163.328L511.074 173.668Z" fill="black" stroke="white" stroke-width="3" stroke-miterlimit="10"/>
<path d="M521.881 159.42L522.365 151.455" stroke="white" stroke-width="3" stroke-miterlimit="10"/>
<path d="M499.521 146.851L513.432 146.435" stroke="white" stroke-width="3" stroke-miterlimit="10"/>
<path d="M666.312 128.746L658.853 133.088L697.585 154.861L645.973 184.913" fill="black"/>
<path d="M666.312 128.746L658.853 133.088L697.585 154.861L645.973 184.913" stroke="white" stroke-width="3" stroke-miterlimit="10"/>
<path d="M689.4 115.301L700.465 108.86" stroke="white" stroke-width="3" stroke-miterlimit="10"/>
<path d="M482.345 22.9908L527.371 21.639" stroke="white" stroke-width="3" stroke-miterlimit="10"/>
<path d="M666.293 128.853L711.065 127.509" stroke="white" stroke-width="3" stroke-miterlimit="10"/>
<path d="M768.494 183.104L754.333 175.144C752.898 174.338 752.981 172.956 754.521 172.06L767.788 164.335C769.328 163.44 771.739 163.368 773.177 164.173L787.337 172.134L768.494 183.104Z" fill="black" stroke="white" stroke-width="3" stroke-miterlimit="10"/>
<path d="M765.832 177.466L761.17 174.845C759.735 174.039 759.818 172.657 761.358 171.761L767.388 168.249C768.928 167.353 771.339 167.282 772.776 168.087L777.438 170.708L765.832 177.466Z" fill="black" stroke="white" stroke-width="3" stroke-miterlimit="10"/>
<path d="M687.419 168.879L680.342 164.902L696.686 155.385L703.764 159.362L687.419 168.879Z" fill="black" stroke="white" stroke-width="3" stroke-miterlimit="10"/>
<path d="M706.731 219.067L645.973 184.912L680.342 164.9L741.099 199.054L706.731 219.067Z" fill="black" stroke="white" stroke-width="3" stroke-miterlimit="10"/>
<path d="M704.827 207.394L668.382 186.907C665.943 185.535 666.087 183.192 668.702 181.67L679.4 175.441C682.014 173.918 686.109 173.794 688.548 175.166L724.993 195.653C727.433 197.024 727.288 199.367 724.674 200.89L713.975 207.119C711.361 208.642 707.267 208.765 704.827 207.394Z" fill="black" stroke="white" stroke-width="3" stroke-miterlimit="10"/>
<path d="M706.251 173.014C710.192 172.723 713.252 170.669 713.086 168.428C712.92 166.186 709.591 164.605 705.65 164.896C701.709 165.188 698.649 167.241 698.815 169.483C698.981 171.724 702.311 173.305 706.251 173.014Z" fill="black" stroke="white" stroke-width="3" stroke-miterlimit="10"/>
<path d="M699.038 167.805L694.063 165.008L699.398 161.902L704.376 164.7L699.038 167.805Z" fill="black" stroke="white" stroke-width="3" stroke-miterlimit="10"/>
<path d="M663.03 178.262L672.878 172.529" stroke="white" stroke-width="3" stroke-miterlimit="10"/>
<path d="M675.68 180.06L667.674 175.561" stroke="white" stroke-width="3" stroke-miterlimit="10"/>
<path d="M674.137 153.807L664.288 159.54" stroke="white" stroke-width="3" stroke-miterlimit="10"/>
<path d="M664.036 153.443L669.492 156.508" stroke="white" stroke-width="3" stroke-miterlimit="10"/>
<path d="M620.347 193.122L598.366 180.768L624.245 165.698L646.226 178.055L620.347 193.122Z" fill="black" stroke="white" stroke-width="3" stroke-miterlimit="10"/>
<path d="M624.352 176.895C627.419 176.668 629.8 175.069 629.671 173.324C629.541 171.578 626.95 170.347 623.883 170.574C620.816 170.801 618.435 172.399 618.564 174.145C618.694 175.89 621.285 177.122 624.352 176.895Z" fill="black" stroke="white" stroke-width="3" stroke-miterlimit="10"/>
<path d="M611.041 181.349C611.843 181.29 612.466 180.872 612.432 180.416C612.398 179.96 611.72 179.638 610.918 179.697C610.116 179.757 609.493 180.175 609.526 180.631C609.56 181.087 610.238 181.409 611.041 181.349Z" fill="black" stroke="white" stroke-width="3" stroke-miterlimit="10"/>
<path d="M633.498 179.799C634.3 179.739 634.923 179.321 634.89 178.865C634.856 178.409 634.178 178.087 633.375 178.147C632.573 178.206 631.95 178.624 631.984 179.08C632.018 179.536 632.696 179.858 633.498 179.799Z" fill="black" stroke="white" stroke-width="3" stroke-miterlimit="10"/>
<path d="M619.659 187.62C622.726 187.393 625.107 185.794 624.978 184.048C624.848 182.303 622.257 181.072 619.19 181.298C616.123 181.525 613.742 183.124 613.871 184.87C614.001 186.615 616.592 187.846 619.659 187.62Z" fill="black" stroke="white" stroke-width="3" stroke-miterlimit="10"/>
<path d="M660.656 163.083L647.897 155.91C646.82 155.305 646.883 154.269 648.039 153.597L663.917 144.352C665.073 143.68 666.883 143.627 667.96 144.232L680.719 151.404C681.796 152.009 681.733 153.045 680.577 153.717L664.699 162.962C663.543 163.634 661.733 163.688 660.656 163.083Z" fill="black" stroke="white" stroke-width="3" stroke-miterlimit="10"/>
<path d="M658.999 157.385L655.107 155.199C654.09 154.627 654.15 153.652 655.239 153.015L663.03 148.48C664.119 147.847 665.827 147.795 666.841 148.367L670.733 150.553C671.749 151.125 671.69 152.1 670.601 152.736L662.81 157.272C661.72 157.905 660.013 157.957 658.999 157.385Z" fill="black" stroke="white" stroke-width="3" stroke-miterlimit="10"/>
<path d="M594.855 139.375L532.485 104.315C530.404 103.144 530.526 101.145 532.756 99.8458L558.631 84.7782C560.861 83.4793 564.358 83.3738 566.439 84.5444L628.809 119.605C630.89 120.775 630.768 122.775 628.538 124.074L602.663 139.142C600.433 140.441 596.936 140.546 594.855 139.375Z" fill="black" stroke="white" stroke-width="3" stroke-miterlimit="10"/>
<path d="M613.797 125.201L555.545 92.455C554.317 91.7648 554.387 90.5842 555.706 89.8168L557.107 89.0016C558.423 88.2342 560.487 88.1726 561.714 88.8628L619.966 121.609C621.193 122.299 621.124 123.48 619.805 124.247L618.404 125.063C617.088 125.83 615.024 125.892 613.797 125.201Z" fill="black" stroke="white" stroke-width="3" stroke-miterlimit="10"/>
<path d="M554.278 91.7422L556.555 93.0222C558.694 94.2233 558.569 96.2802 556.275 97.615L542.887 105.412C540.596 106.746 537.003 106.854 534.867 105.653L532.59 104.373C530.452 103.172 530.577 101.115 532.871 99.7805L546.259 91.9839C548.55 90.6491 552.143 90.5412 554.278 91.7422Z" fill="black" stroke="white" stroke-width="3" stroke-miterlimit="10"/>
<path d="M614.167 125.41L616.444 126.69C618.582 127.891 618.457 129.948 616.163 131.283L602.775 139.08C600.484 140.414 596.891 140.522 594.756 139.321L592.479 138.041C590.34 136.84 590.465 134.783 592.759 133.448L606.147 125.652C608.438 124.317 612.031 124.209 614.167 125.41Z" fill="black" stroke="white" stroke-width="3" stroke-miterlimit="10"/>
<path d="M563.673 121.848L585.361 109.217" stroke="white" stroke-width="3" stroke-miterlimit="10"/>
<path d="M454.721 85.6881C454.721 85.6881 428.232 71.856 405.539 72.8774L410.616 68.2071C410.616 68.2071 435.212 66.6683 463.611 80.5103L454.721 85.6881Z" fill="black" stroke="white" stroke-width="3" stroke-miterlimit="10"/>
<path d="M474.768 22.3525L509.242 2.27731L513.658 4.7584L479.18 24.8336L474.768 22.3525Z" fill="black" stroke="white" stroke-width="3" stroke-miterlimit="10"/>
</g>
<defs>
<clipPath id="clip0_995_44009">
<rect width="440.98" height="216.808" fill="white" transform="translate(359.927 0.984375) rotate(0.296238)"/>
</clipPath>
</defs>
</svg>
