<svg width="756" height="345" viewBox="0 0 756 345" fill="none" xmlns="http://www.w3.org/2000/svg">
<path d="M374.462 195.461L563.338 99.4218L752.213 195.461L563.338 291.5L374.462 195.461Z" stroke="#FF8B59" stroke-width="3"/>
<path d="M747.667 176.95L622.474 243.611L405.286 128.648L530.475 61.9835L747.667 176.95Z" fill="black" stroke="white" stroke-width="3" stroke-miterlimit="10"/>
<path d="M719.736 191.938L650.966 228.557L625.98 215.331L694.75 178.713L719.736 191.938Z" fill="black" stroke="white" stroke-width="3" stroke-miterlimit="10"/>
<path d="M527.101 90.198L458.332 126.813L433.346 113.588L502.115 76.9727L527.101 90.198Z" fill="black" stroke="white" stroke-width="3" stroke-miterlimit="10"/>
<path d="M644.881 122.055L518.77 189.203" stroke="white" stroke-width="3" stroke-miterlimit="10"/>
<path d="M621.094 159.282C622.54 147.845 605.954 136.81 584.048 134.633C562.143 132.457 543.213 139.964 541.767 151.401C540.321 162.838 556.907 173.874 578.812 176.05C600.718 178.226 619.648 170.719 621.094 159.282Z" fill="black" stroke="white" stroke-width="3" stroke-miterlimit="10"/>
<path d="M504.559 114.866C510.488 111.706 510.044 106.34 503.676 102.71L481.659 114.433C488.515 117.803 498.627 118.027 504.559 114.866Z" fill="black" stroke="white" stroke-width="3" stroke-miterlimit="10"/>
<path d="M647.305 191.246C641.376 194.403 641.82 199.772 648.189 203.402L670.206 191.679C663.349 188.309 653.238 188.089 647.305 191.246Z" fill="black" stroke="white" stroke-width="3" stroke-miterlimit="10"/>
<path d="M53.688 173.643C50.776 173.643 48.2653 172.887 46.156 171.375C44.0467 169.863 42.4133 167.529 41.256 164.375C40.1173 161.201 39.548 157.141 39.548 152.195C39.548 147.453 40.1173 143.543 41.256 140.463C42.4133 137.364 44.0467 135.059 46.156 133.547C48.2653 132.035 50.776 131.279 53.688 131.279C56.5813 131.279 59.0733 132.035 61.164 133.547C63.2733 135.059 64.888 137.364 66.008 140.463C67.1467 143.543 67.716 147.453 67.716 152.195C67.716 157.141 67.1467 161.201 66.008 164.375C64.888 167.529 63.2733 169.863 61.164 171.375C59.0733 172.887 56.5813 173.643 53.688 173.643ZM53.688 168.771C55.424 168.771 56.936 168.239 58.224 167.175C59.512 166.092 60.5107 164.347 61.22 161.939C61.948 159.512 62.312 156.283 62.312 152.251C62.312 148.387 61.948 145.279 61.22 142.927C60.5107 140.556 59.512 138.839 58.224 137.775C56.936 136.692 55.424 136.151 53.688 136.151C51.9707 136.151 50.4493 136.692 49.124 137.775C47.8173 138.839 46.7907 140.556 46.044 142.927C45.316 145.279 44.952 148.387 44.952 152.251C44.952 156.283 45.316 159.512 46.044 161.939C46.7907 164.347 47.8173 166.092 49.124 167.175C50.4307 168.239 51.952 168.771 53.688 168.771ZM74.8389 173.223C73.8123 173.223 72.9443 172.868 72.2349 172.159C71.5256 171.449 71.1709 170.525 71.1709 169.387C71.1709 168.267 71.5256 167.352 72.2349 166.643C72.9443 165.933 73.8123 165.579 74.8389 165.579C75.8656 165.579 76.7336 165.933 77.4429 166.643C78.1523 167.352 78.5069 168.267 78.5069 169.387C78.5069 170.525 78.1523 171.449 77.4429 172.159C76.7336 172.868 75.8656 173.223 74.8389 173.223ZM84.4154 172.803L96.8474 140.575C97.1647 139.735 97.5754 139.025 98.0794 138.447C98.5834 137.849 99.19 137.401 99.8994 137.103C100.627 136.785 101.467 136.627 102.419 136.627L102.839 137.047H78.8434V132.091H102.531H105.219L90.2114 172.803H84.4154ZM116.714 172.803L116.742 136.347L118.002 132.091H122.09V172.803H116.714ZM108.23 140.883V135.647C109.201 135.647 110.116 135.619 110.974 135.563C111.852 135.507 112.654 135.376 113.382 135.171C114.316 134.928 115.156 134.573 115.902 134.107C116.668 133.621 117.368 132.949 118.002 132.091L116.994 136.151C116.696 137.028 116.332 137.803 115.902 138.475C115.492 139.128 114.876 139.651 114.054 140.043C113.326 140.397 112.561 140.631 111.758 140.743C110.956 140.836 109.78 140.883 108.23 140.883ZM146.17 172.803L146.142 164.543H126.682L143.902 132.091H151.21L151.098 132.231L151.238 159.867H156.474V164.543H151.238L151.266 172.803H146.17ZM133.934 160.707C134.289 160.445 134.681 160.24 135.11 160.091C135.558 159.941 135.988 159.867 136.398 159.867H148.102C147.3 159.867 146.777 159.549 146.534 158.915C146.292 158.28 146.17 157.617 146.17 156.927L146.142 144.047L146.422 136.879L143.258 143.627L135.726 157.879L133.934 160.707ZM172.323 172.803V129.263H177.503V142.255L177.055 150.963L177.307 153.427L176.859 151.439C177.083 149.74 177.55 148.144 178.259 146.651C178.987 145.157 180.042 143.944 181.423 143.011C182.823 142.077 184.624 141.611 186.827 141.611C189.72 141.611 191.951 142.469 193.519 144.187C195.087 145.904 195.871 148.517 195.871 152.027V172.803H190.663V153.735C190.663 151.252 190.252 149.423 189.431 148.247C188.628 147.071 187.144 146.483 184.979 146.483C183.318 146.483 181.871 146.977 180.639 147.967C179.407 148.937 178.362 150.253 177.503 151.915V172.803H172.323ZM212.284 173.139C210.342 173.139 208.662 172.775 207.244 172.047C205.844 171.3 204.761 170.292 203.996 169.023C203.249 167.753 202.876 166.316 202.876 164.711C202.876 163.049 203.202 161.649 203.856 160.511C204.509 159.353 205.452 158.411 206.684 157.683C207.916 156.936 209.409 156.376 211.164 156.003C212.321 155.741 213.544 155.536 214.832 155.387C216.138 155.237 217.389 155.116 218.584 155.023C219.778 154.929 220.796 154.864 221.636 154.827V153.119C221.636 150.673 221.122 148.919 220.096 147.855C219.069 146.772 217.473 146.231 215.308 146.231C213.964 146.231 212.778 146.408 211.752 146.763C210.744 147.117 209.96 147.78 209.4 148.751C208.84 149.703 208.569 151.103 208.588 152.951H203.716C203.492 150.431 203.846 148.34 204.78 146.679C205.713 144.999 207.113 143.748 208.98 142.927C210.846 142.087 213.058 141.667 215.615 141.667C217.072 141.667 218.462 141.844 219.788 142.199C221.113 142.535 222.289 143.113 223.316 143.935C224.342 144.737 225.154 145.839 225.752 147.239C226.349 148.639 226.648 150.393 226.648 152.503V172.803H221.58L221.636 166.167C221.169 168.276 220.114 169.965 218.472 171.235C216.848 172.504 214.785 173.139 212.284 173.139ZM213.488 169.023C214.85 169.023 216.101 168.771 217.24 168.267C218.397 167.763 219.368 167.119 220.152 166.335C220.936 165.551 221.43 164.748 221.636 163.927V157.991C220.553 158.065 219.349 158.196 218.024 158.383C216.698 158.551 215.532 158.756 214.524 158.999C212.508 159.465 211.005 160.091 210.016 160.875C209.045 161.659 208.56 162.788 208.56 164.263C208.56 165.14 208.746 165.943 209.12 166.671C209.512 167.38 210.072 167.949 210.8 168.379C211.528 168.789 212.424 169.004 213.488 169.023Z" fill="white"/>
<path d="M47.198 265.242C45.842 265.242 44.6 265.038 43.472 264.63C42.356 264.21 41.45 263.562 40.754 262.686C40.058 261.798 39.668 260.658 39.584 259.266H42.896C43.112 260.466 43.586 261.294 44.318 261.75C45.062 262.194 46.004 262.416 47.144 262.416C47.924 262.416 48.626 262.332 49.25 262.164C49.886 261.996 50.39 261.714 50.762 261.318C51.134 260.922 51.32 260.382 51.32 259.698C51.32 259.17 51.206 258.744 50.978 258.42C50.75 258.096 50.432 257.832 50.024 257.628C49.616 257.412 49.136 257.226 48.584 257.07C48.044 256.914 47.456 256.746 46.82 256.566C45.632 256.218 44.534 255.816 43.526 255.36C42.518 254.892 41.708 254.268 41.096 253.488C40.484 252.708 40.178 251.664 40.178 250.356C40.178 248.748 40.79 247.446 42.014 246.45C43.238 245.442 44.846 244.938 46.838 244.938C48.098 244.938 49.232 245.13 50.24 245.514C51.26 245.898 52.088 246.516 52.724 247.368C53.372 248.208 53.768 249.336 53.912 250.752H50.618C50.498 250.104 50.276 249.558 49.952 249.114C49.64 248.67 49.226 248.334 48.71 248.106C48.194 247.878 47.564 247.764 46.82 247.764C46.196 247.764 45.632 247.854 45.128 248.034C44.624 248.202 44.222 248.472 43.922 248.844C43.622 249.216 43.472 249.708 43.472 250.32C43.472 250.992 43.652 251.532 44.012 251.94C44.372 252.348 44.882 252.69 45.542 252.966C46.202 253.23 46.976 253.494 47.864 253.758C48.548 253.974 49.28 254.202 50.06 254.442C50.84 254.67 51.572 254.976 52.256 255.36C52.952 255.744 53.516 256.26 53.948 256.908C54.392 257.544 54.614 258.378 54.614 259.41C54.614 261.258 53.93 262.692 52.562 263.712C51.194 264.732 49.406 265.242 47.198 265.242ZM66.3655 265.206C64.6375 265.206 63.1195 264.816 61.8115 264.036C60.5155 263.256 59.5015 262.11 58.7695 260.598C58.0495 259.074 57.6895 257.208 57.6895 255C57.6895 252.912 58.0735 251.112 58.8415 249.6C59.6095 248.088 60.6535 246.93 61.9735 246.126C63.3055 245.31 64.7935 244.902 66.4375 244.902C68.2255 244.902 69.7675 245.31 71.0635 246.126C72.3715 246.93 73.3795 248.088 74.0875 249.6C74.7955 251.112 75.1495 252.912 75.1495 255C75.1495 257.208 74.7535 259.074 73.9615 260.598C73.1815 262.11 72.1255 263.256 70.7935 264.036C69.4615 264.816 67.9855 265.206 66.3655 265.206ZM66.4375 262.254C68.0455 262.254 69.3295 261.654 70.2895 260.454C71.2495 259.254 71.7295 257.436 71.7295 255C71.7295 252.672 71.2555 250.902 70.3075 249.69C69.3715 248.466 68.0575 247.854 66.3655 247.854C64.7695 247.854 63.4915 248.466 62.5315 249.69C61.5835 250.902 61.1095 252.672 61.1095 255C61.1095 257.352 61.5895 259.152 62.5495 260.4C63.5215 261.636 64.8175 262.254 66.4375 262.254ZM87.2902 265.26C85.4662 265.26 83.8822 264.846 82.5382 264.018C81.1942 263.19 80.1562 262.014 79.4242 260.49C78.6922 258.966 78.3262 257.172 78.3262 255.108C78.3262 252.936 78.6982 251.094 79.4422 249.582C80.1982 248.07 81.2362 246.918 82.5562 246.126C83.8882 245.322 85.4062 244.92 87.1102 244.92C88.7422 244.92 90.1282 245.238 91.2682 245.874C92.4082 246.498 93.2782 247.332 93.8782 248.376C94.4902 249.42 94.8142 250.572 94.8502 251.832H91.5562C91.5322 251.352 91.4302 250.878 91.2502 250.41C91.0702 249.942 90.8002 249.522 90.4402 249.15C90.0802 248.766 89.6182 248.46 89.0542 248.232C88.5022 247.992 87.8362 247.872 87.0562 247.872C85.2442 247.86 83.9062 248.49 83.0422 249.762C82.1782 251.034 81.7462 252.78 81.7462 255C81.7462 257.376 82.2262 259.188 83.1862 260.436C84.1462 261.684 85.5862 262.308 87.5062 262.308C88.2502 262.308 88.9162 262.14 89.5042 261.804C90.0922 261.468 90.5602 261.03 90.9082 260.49C91.2682 259.95 91.4602 259.374 91.4842 258.762H94.7782C94.7422 259.998 94.3942 261.108 93.7342 262.092C93.0742 263.076 92.1862 263.85 91.0702 264.414C89.9542 264.978 88.6942 265.26 87.2902 265.26ZM106.732 265.26C104.908 265.26 103.324 264.846 101.98 264.018C100.636 263.19 99.5976 262.014 98.8656 260.49C98.1336 258.966 97.7676 257.172 97.7676 255.108C97.7676 252.936 98.1396 251.094 98.8836 249.582C99.6396 248.07 100.678 246.918 101.998 246.126C103.33 245.322 104.848 244.92 106.552 244.92C108.184 244.92 109.57 245.238 110.71 245.874C111.85 246.498 112.72 247.332 113.32 248.376C113.932 249.42 114.256 250.572 114.292 251.832H110.998C110.974 251.352 110.872 250.878 110.692 250.41C110.512 249.942 110.242 249.522 109.882 249.15C109.522 248.766 109.06 248.46 108.496 248.232C107.944 247.992 107.278 247.872 106.498 247.872C104.686 247.86 103.348 248.49 102.484 249.762C101.62 251.034 101.188 252.78 101.188 255C101.188 257.376 101.668 259.188 102.628 260.436C103.588 261.684 105.028 262.308 106.948 262.308C107.692 262.308 108.358 262.14 108.946 261.804C109.534 261.468 110.002 261.03 110.35 260.49C110.71 259.95 110.902 259.374 110.926 258.762H114.22C114.184 259.998 113.836 261.108 113.176 262.092C112.516 263.076 111.628 263.85 110.512 264.414C109.396 264.978 108.136 265.26 106.732 265.26ZM126.047 265.206C124.259 265.206 122.687 264.816 121.331 264.036C119.987 263.256 118.943 262.11 118.199 260.598C117.455 259.074 117.083 257.214 117.083 255.018C117.083 252.906 117.467 251.094 118.235 249.582C119.003 248.07 120.059 246.912 121.403 246.108C122.747 245.304 124.277 244.902 125.993 244.902C127.697 244.902 129.155 245.268 130.367 246C131.591 246.732 132.533 247.782 133.193 249.15C133.853 250.506 134.177 252.132 134.165 254.028C134.165 254.412 134.153 254.73 134.129 254.982C134.105 255.234 134.087 255.498 134.075 255.774H120.431C120.515 257.934 121.055 259.572 122.051 260.688C123.059 261.792 124.343 262.344 125.903 262.344C127.223 262.344 128.243 262.068 128.963 261.516C129.695 260.952 130.157 260.232 130.349 259.356H133.625C133.541 260.604 133.157 261.666 132.473 262.542C131.801 263.418 130.913 264.084 129.809 264.54C128.705 264.984 127.451 265.206 126.047 265.206ZM122.213 253.254H130.799C130.775 251.574 130.361 250.254 129.557 249.294C128.753 248.334 127.523 247.854 125.867 247.854C124.127 247.854 122.807 248.448 121.907 249.636C121.007 250.812 120.515 252.438 120.431 254.514C120.527 254.022 120.719 253.692 121.007 253.524C121.307 253.344 121.709 253.254 122.213 253.254ZM138.546 264.936V245.28H141.39L141.75 252.84L141.354 251.814C141.438 251.07 141.6 250.296 141.84 249.492C142.092 248.688 142.446 247.938 142.902 247.242C143.37 246.534 143.964 245.964 144.684 245.532C145.416 245.1 146.31 244.884 147.366 244.884C147.57 244.884 147.762 244.896 147.942 244.92C148.134 244.944 148.32 244.974 148.5 245.01V248.556C148.2 248.46 147.882 248.4 147.546 248.376C147.222 248.34 146.916 248.322 146.628 248.322C146.04 248.322 145.446 248.436 144.846 248.664C144.246 248.892 143.688 249.258 143.172 249.762C142.656 250.254 142.23 250.896 141.894 251.688V264.936H138.546ZM159.879 264.936V250.032C159.879 249.648 159.957 249.288 160.113 248.952C160.269 248.616 160.497 248.4 160.797 248.304L159.879 246.09V242.958C159.879 241.422 160.173 240.15 160.761 239.142C161.361 238.122 162.159 237.366 163.155 236.874C164.163 236.37 165.285 236.118 166.521 236.118C167.121 236.118 167.619 236.136 168.015 236.172C168.411 236.208 168.753 236.244 169.041 236.28V239.52C168.777 239.412 168.453 239.334 168.069 239.286C167.697 239.238 167.229 239.214 166.665 239.214C165.933 239.214 165.303 239.34 164.775 239.592C164.259 239.832 163.863 240.264 163.587 240.888C163.311 241.5 163.173 242.37 163.173 243.498V264.936H159.879ZM156.765 248.304V245.28H167.871V248.304H156.765ZM171.921 264.936V245.406H175.305L175.251 264.936H171.921ZM173.631 242.256C172.971 242.256 172.407 242.028 171.939 241.572C171.483 241.116 171.255 240.528 171.255 239.808C171.255 239.1 171.483 238.518 171.939 238.062C172.407 237.606 172.971 237.378 173.631 237.378C174.279 237.378 174.831 237.606 175.287 238.062C175.755 238.518 175.989 239.1 175.989 239.808C175.989 240.528 175.755 241.116 175.287 241.572C174.819 242.028 174.267 242.256 173.631 242.256ZM189.012 265.206C187.224 265.206 185.652 264.816 184.296 264.036C182.952 263.256 181.908 262.11 181.164 260.598C180.42 259.074 180.048 257.214 180.048 255.018C180.048 252.906 180.432 251.094 181.2 249.582C181.968 248.07 183.024 246.912 184.368 246.108C185.712 245.304 187.242 244.902 188.958 244.902C190.662 244.902 192.12 245.268 193.332 246C194.556 246.732 195.498 247.782 196.158 249.15C196.818 250.506 197.142 252.132 197.13 254.028C197.13 254.412 197.118 254.73 197.094 254.982C197.07 255.234 197.052 255.498 197.04 255.774H183.396C183.48 257.934 184.02 259.572 185.016 260.688C186.024 261.792 187.308 262.344 188.868 262.344C190.188 262.344 191.208 262.068 191.928 261.516C192.66 260.952 193.122 260.232 193.314 259.356H196.59C196.506 260.604 196.122 261.666 195.438 262.542C194.766 263.418 193.878 264.084 192.774 264.54C191.67 264.984 190.416 265.206 189.012 265.206ZM185.178 253.254H193.764C193.74 251.574 193.326 250.254 192.522 249.294C191.718 248.334 190.488 247.854 188.832 247.854C187.092 247.854 185.772 248.448 184.872 249.636C183.972 250.812 183.48 252.438 183.396 254.514C183.492 254.022 183.684 253.692 183.972 253.524C184.272 253.344 184.674 253.254 185.178 253.254ZM201.476 264.936V236.946H204.824V264.936H201.476ZM217.148 265.152C215.552 265.152 214.172 264.732 213.008 263.892C211.856 263.052 210.968 261.87 210.344 260.346C209.732 258.822 209.426 257.04 209.426 255C209.426 252.744 209.804 250.872 210.56 249.384C211.328 247.884 212.312 246.768 213.512 246.036C214.724 245.292 216.002 244.92 217.346 244.92C218.654 244.92 219.68 245.142 220.424 245.586C221.18 246.03 221.732 246.546 222.08 247.134C222.44 247.71 222.656 248.208 222.728 248.628L223.79 248.808L222.494 249.942C222.41 249.69 222.206 249.402 221.882 249.078C221.558 248.742 221.096 248.454 220.496 248.214C219.896 247.962 219.134 247.836 218.21 247.836C216.662 247.836 215.384 248.418 214.376 249.582C213.368 250.734 212.864 252.564 212.864 255.072C212.864 257.4 213.338 259.188 214.286 260.436C215.246 261.684 216.476 262.308 217.976 262.308C218.912 262.308 219.686 262.146 220.298 261.822C220.922 261.498 221.408 261.102 221.756 260.634C222.116 260.166 222.362 259.728 222.494 259.32L222.674 259.968L222.494 260.634C222.434 261.03 222.302 261.486 222.098 262.002C221.894 262.506 221.588 262.998 221.18 263.478C220.772 263.958 220.238 264.36 219.578 264.684C218.93 264.996 218.12 265.152 217.148 265.152ZM222.512 264.936L222.494 236.928H225.824L225.842 264.936H222.512Z" fill="white"/>
<path d="M39.952 226V206.344H42.796L43.156 213.904L42.76 212.878C42.844 212.134 43.006 211.36 43.246 210.556C43.498 209.752 43.852 209.002 44.308 208.306C44.776 207.598 45.37 207.028 46.09 206.596C46.822 206.164 47.716 205.948 48.772 205.948C48.976 205.948 49.168 205.96 49.348 205.984C49.54 206.008 49.726 206.038 49.906 206.074V209.62C49.606 209.524 49.288 209.464 48.952 209.44C48.628 209.404 48.322 209.386 48.034 209.386C47.446 209.386 46.852 209.5 46.252 209.728C45.652 209.956 45.094 210.322 44.578 210.826C44.062 211.318 43.636 211.96 43.3 212.752V226H39.952ZM57.9244 226.216C56.6764 226.216 55.5964 225.982 54.6844 225.514C53.7844 225.034 53.0884 224.386 52.5964 223.57C52.1164 222.754 51.8764 221.83 51.8764 220.798C51.8764 219.73 52.0864 218.83 52.5064 218.098C52.9264 217.354 53.5324 216.748 54.3244 216.28C55.1164 215.8 56.0764 215.44 57.2044 215.2C57.9484 215.032 58.7344 214.9 59.5624 214.804C60.4024 214.708 61.2064 214.63 61.9744 214.57C62.7424 214.51 63.3964 214.468 63.9364 214.444V213.346C63.9364 211.774 63.6064 210.646 62.9464 209.962C62.2864 209.266 61.2604 208.918 59.8684 208.918C59.0044 208.918 58.2424 209.032 57.5824 209.26C56.9344 209.488 56.4304 209.914 56.0704 210.538C55.7104 211.15 55.5364 212.05 55.5484 213.238H52.4164C52.2724 211.618 52.5004 210.274 53.1004 209.206C53.7004 208.126 54.6004 207.322 55.8004 206.794C57.0004 206.254 58.4224 205.984 60.0664 205.984C61.0024 205.984 61.8964 206.098 62.7484 206.326C63.6004 206.542 64.3564 206.914 65.0164 207.442C65.6764 207.958 66.1984 208.666 66.5824 209.566C66.9664 210.466 67.1584 211.594 67.1584 212.95V226H63.9004L63.9364 221.734C63.6364 223.09 62.9584 224.176 61.9024 224.992C60.8584 225.808 59.5324 226.216 57.9244 226.216ZM58.6984 223.57C59.5744 223.57 60.3784 223.408 61.1104 223.084C61.8544 222.76 62.4784 222.346 62.9824 221.842C63.4864 221.338 63.8044 220.822 63.9364 220.294V216.478C63.2404 216.526 62.4664 216.61 61.6144 216.73C60.7624 216.838 60.0124 216.97 59.3644 217.126C58.0684 217.426 57.1024 217.828 56.4664 218.332C55.8424 218.836 55.5304 219.562 55.5304 220.51C55.5304 221.074 55.6504 221.59 55.8904 222.058C56.1424 222.514 56.5024 222.88 56.9704 223.156C57.4384 223.42 58.0144 223.558 58.6984 223.57ZM78.0034 226.27C76.4794 226.27 75.3154 225.88 74.5114 225.1C73.7194 224.308 73.3234 223.186 73.3234 221.734V211.078C73.3234 210.694 73.4014 210.34 73.5574 210.016C73.7134 209.68 73.9414 209.464 74.2414 209.368L73.3234 207.136V206.524L74.1334 200.656H76.6354V221.176C76.6354 221.944 76.8154 222.466 77.1754 222.742C77.5354 223.006 78.1534 223.138 79.0294 223.138C79.6654 223.138 80.2054 223.138 80.6494 223.138C81.0934 223.126 81.5554 223.102 82.0354 223.066V226.018C81.3754 226.138 80.6914 226.21 79.9834 226.234C79.2874 226.258 78.6274 226.27 78.0034 226.27ZM70.4614 209.368V206.344H81.8734V209.368H70.4614ZM85.8557 226V206.47H89.2397L89.1857 226H85.8557ZM87.5657 203.32C86.9057 203.32 86.3417 203.092 85.8737 202.636C85.4177 202.18 85.1897 201.592 85.1897 200.872C85.1897 200.164 85.4177 199.582 85.8737 199.126C86.3417 198.67 86.9057 198.442 87.5657 198.442C88.2137 198.442 88.7657 198.67 89.2217 199.126C89.6897 199.582 89.9237 200.164 89.9237 200.872C89.9237 201.592 89.6897 202.18 89.2217 202.636C88.7537 203.092 88.2017 203.32 87.5657 203.32ZM102.526 226.27C100.798 226.27 99.2796 225.88 97.9716 225.1C96.6756 224.32 95.6616 223.174 94.9296 221.662C94.2096 220.138 93.8496 218.272 93.8496 216.064C93.8496 213.976 94.2336 212.176 95.0016 210.664C95.7696 209.152 96.8136 207.994 98.1336 207.19C99.4656 206.374 100.954 205.966 102.598 205.966C104.386 205.966 105.928 206.374 107.224 207.19C108.532 207.994 109.54 209.152 110.248 210.664C110.956 212.176 111.31 213.976 111.31 216.064C111.31 218.272 110.914 220.138 110.122 221.662C109.342 223.174 108.286 224.32 106.954 225.1C105.622 225.88 104.146 226.27 102.526 226.27ZM102.598 223.318C104.206 223.318 105.49 222.718 106.45 221.518C107.41 220.318 107.89 218.5 107.89 216.064C107.89 213.736 107.416 211.966 106.468 210.754C105.532 209.53 104.218 208.918 102.526 208.918C100.93 208.918 99.6516 209.53 98.6916 210.754C97.7436 211.966 97.2696 213.736 97.2696 216.064C97.2696 218.416 97.7496 220.216 98.7096 221.464C99.6816 222.7 100.978 223.318 102.598 223.318ZM129.919 226.324C128.095 226.324 126.511 225.91 125.167 225.082C123.823 224.254 122.785 223.078 122.053 221.554C121.321 220.03 120.955 218.236 120.955 216.172C120.955 214 121.327 212.158 122.071 210.646C122.827 209.134 123.865 207.982 125.185 207.19C126.517 206.386 128.035 205.984 129.739 205.984C131.371 205.984 132.757 206.302 133.897 206.938C135.037 207.562 135.907 208.396 136.507 209.44C137.119 210.484 137.443 211.636 137.479 212.896H134.185C134.161 212.416 134.059 211.942 133.879 211.474C133.699 211.006 133.429 210.586 133.069 210.214C132.709 209.83 132.247 209.524 131.683 209.296C131.131 209.056 130.465 208.936 129.685 208.936C127.873 208.924 126.535 209.554 125.671 210.826C124.807 212.098 124.375 213.844 124.375 216.064C124.375 218.44 124.855 220.252 125.815 221.5C126.775 222.748 128.215 223.372 130.135 223.372C130.879 223.372 131.545 223.204 132.133 222.868C132.721 222.532 133.189 222.094 133.537 221.554C133.897 221.014 134.089 220.438 134.113 219.826H137.407C137.371 221.062 137.023 222.172 136.363 223.156C135.703 224.14 134.815 224.914 133.699 225.478C132.583 226.042 131.323 226.324 129.919 226.324ZM149.073 226.27C147.345 226.27 145.827 225.88 144.519 225.1C143.223 224.32 142.209 223.174 141.477 221.662C140.757 220.138 140.397 218.272 140.397 216.064C140.397 213.976 140.781 212.176 141.549 210.664C142.317 209.152 143.361 207.994 144.681 207.19C146.013 206.374 147.501 205.966 149.145 205.966C150.933 205.966 152.475 206.374 153.771 207.19C155.079 207.994 156.087 209.152 156.795 210.664C157.503 212.176 157.857 213.976 157.857 216.064C157.857 218.272 157.461 220.138 156.669 221.662C155.889 223.174 154.833 224.32 153.501 225.1C152.169 225.88 150.693 226.27 149.073 226.27ZM149.145 223.318C150.753 223.318 152.037 222.718 152.997 221.518C153.957 220.318 154.437 218.5 154.437 216.064C154.437 213.736 153.963 211.966 153.015 210.754C152.079 209.53 150.765 208.918 149.073 208.918C147.477 208.918 146.199 209.53 145.239 210.754C144.291 211.966 143.817 213.736 143.817 216.064C143.817 218.416 144.297 220.216 145.257 221.464C146.229 222.7 147.525 223.318 149.145 223.318ZM162.401 226V206.344H165.245L165.623 213.76L165.299 212.266C165.455 211.102 165.779 210.046 166.271 209.098C166.763 208.138 167.459 207.376 168.359 206.812C169.259 206.236 170.393 205.948 171.761 205.948C173.357 205.948 174.623 206.398 175.559 207.298C176.507 208.186 177.089 209.554 177.305 211.402L177.395 211.672V226H174.047V213.76C174.047 212.644 173.927 211.744 173.687 211.06C173.459 210.376 173.087 209.878 172.571 209.566C172.055 209.242 171.377 209.08 170.537 209.08C169.481 209.08 168.551 209.374 167.747 209.962C166.943 210.55 166.283 211.36 165.767 212.392V226H162.401ZM185.693 226V213.742C185.693 212.638 185.573 211.744 185.333 211.06C185.093 210.376 184.715 209.878 184.199 209.566C183.695 209.242 183.023 209.08 182.183 209.08C181.127 209.08 180.197 209.374 179.393 209.962C178.589 210.55 177.923 211.36 177.395 212.392L177.323 213.76L176.999 212.482C177.131 211.342 177.437 210.274 177.917 209.278C178.397 208.282 179.081 207.478 179.969 206.866C180.869 206.254 181.997 205.948 183.353 205.948C185.141 205.948 186.533 206.512 187.529 207.64C188.537 208.768 189.041 210.436 189.041 212.644V226H185.693ZM203.366 226.216C202.094 226.216 201.068 225.994 200.288 225.55C199.52 225.094 198.95 224.572 198.578 223.984C198.206 223.396 197.984 222.904 197.912 222.508L196.85 222.328L198.128 221.392C198.236 221.68 198.47 221.986 198.83 222.31C199.19 222.634 199.676 222.916 200.288 223.156C200.912 223.384 201.65 223.498 202.502 223.498C203.978 223.498 205.202 222.892 206.174 221.68C207.158 220.468 207.65 218.566 207.65 215.974C207.65 213.646 207.194 211.894 206.282 210.718C205.382 209.53 204.23 208.936 202.826 208.936C201.878 208.936 201.074 209.086 200.414 209.386C199.766 209.686 199.25 210.052 198.866 210.484C198.494 210.904 198.248 211.312 198.128 211.708V210.376C198.152 209.992 198.272 209.554 198.488 209.062C198.704 208.558 199.034 208.072 199.478 207.604C199.934 207.136 200.516 206.752 201.224 206.452C201.932 206.14 202.796 205.984 203.816 205.984C205.316 205.984 206.612 206.386 207.704 207.19C208.796 207.994 209.636 209.128 210.224 210.592C210.812 212.056 211.106 213.772 211.106 215.74C211.106 217.528 210.884 219.082 210.44 220.402C209.996 221.71 209.396 222.796 208.64 223.66C207.896 224.524 207.062 225.166 206.138 225.586C205.226 226.006 204.302 226.216 203.366 226.216ZM194.798 233.254V206.344H198.092L198.128 209.008V221.392L197.912 222.508L198.128 226.018L198.146 233.254H194.798ZM220.733 226.216C219.485 226.216 218.405 225.982 217.493 225.514C216.593 225.034 215.897 224.386 215.405 223.57C214.925 222.754 214.685 221.83 214.685 220.798C214.685 219.73 214.895 218.83 215.315 218.098C215.735 217.354 216.341 216.748 217.133 216.28C217.925 215.8 218.885 215.44 220.013 215.2C220.757 215.032 221.543 214.9 222.371 214.804C223.211 214.708 224.015 214.63 224.783 214.57C225.551 214.51 226.205 214.468 226.745 214.444V213.346C226.745 211.774 226.415 210.646 225.755 209.962C225.095 209.266 224.069 208.918 222.677 208.918C221.813 208.918 221.051 209.032 220.391 209.26C219.743 209.488 219.239 209.914 218.879 210.538C218.519 211.15 218.345 212.05 218.357 213.238H215.225C215.081 211.618 215.309 210.274 215.909 209.206C216.509 208.126 217.409 207.322 218.609 206.794C219.809 206.254 221.231 205.984 222.875 205.984C223.811 205.984 224.705 206.098 225.557 206.326C226.409 206.542 227.165 206.914 227.825 207.442C228.485 207.958 229.007 208.666 229.391 209.566C229.775 210.466 229.967 211.594 229.967 212.95V226H226.709L226.745 221.734C226.445 223.09 225.767 224.176 224.711 224.992C223.667 225.808 222.341 226.216 220.733 226.216ZM221.507 223.57C222.383 223.57 223.187 223.408 223.919 223.084C224.663 222.76 225.287 222.346 225.791 221.842C226.295 221.338 226.613 220.822 226.745 220.294V216.478C226.049 216.526 225.275 216.61 224.423 216.73C223.571 216.838 222.821 216.97 222.173 217.126C220.877 217.426 219.911 217.828 219.275 218.332C218.651 218.836 218.339 219.562 218.339 220.51C218.339 221.074 218.459 221.59 218.699 222.058C218.951 222.514 219.311 222.88 219.779 223.156C220.247 223.42 220.823 223.558 221.507 223.57ZM235.632 226V206.344H238.476L238.836 213.904L238.44 212.878C238.524 212.134 238.686 211.36 238.926 210.556C239.178 209.752 239.532 209.002 239.988 208.306C240.456 207.598 241.05 207.028 241.77 206.596C242.502 206.164 243.396 205.948 244.452 205.948C244.656 205.948 244.848 205.96 245.028 205.984C245.22 206.008 245.406 206.038 245.586 206.074V209.62C245.286 209.524 244.968 209.464 244.632 209.44C244.308 209.404 244.002 209.386 243.714 209.386C243.126 209.386 242.532 209.5 241.932 209.728C241.332 209.956 240.774 210.322 240.258 210.826C239.742 211.318 239.316 211.96 238.98 212.752V226H235.632ZM248.981 226V206.47H252.365L252.311 226H248.981ZM250.691 203.32C250.031 203.32 249.467 203.092 248.999 202.636C248.543 202.18 248.315 201.592 248.315 200.872C248.315 200.164 248.543 199.582 248.999 199.126C249.467 198.67 250.031 198.442 250.691 198.442C251.339 198.442 251.891 198.67 252.347 199.126C252.815 199.582 253.049 200.164 253.049 200.872C253.049 201.592 252.815 202.18 252.347 202.636C251.879 203.092 251.327 203.32 250.691 203.32ZM264.202 226.306C262.846 226.306 261.604 226.102 260.476 225.694C259.36 225.274 258.454 224.626 257.758 223.75C257.062 222.862 256.672 221.722 256.588 220.33H259.9C260.116 221.53 260.59 222.358 261.322 222.814C262.066 223.258 263.008 223.48 264.148 223.48C264.928 223.48 265.63 223.396 266.254 223.228C266.89 223.06 267.394 222.778 267.766 222.382C268.138 221.986 268.324 221.446 268.324 220.762C268.324 220.234 268.21 219.808 267.982 219.484C267.754 219.16 267.436 218.896 267.028 218.692C266.62 218.476 266.14 218.29 265.588 218.134C265.048 217.978 264.46 217.81 263.824 217.63C262.636 217.282 261.538 216.88 260.53 216.424C259.522 215.956 258.712 215.332 258.1 214.552C257.488 213.772 257.182 212.728 257.182 211.42C257.182 209.812 257.794 208.51 259.018 207.514C260.242 206.506 261.85 206.002 263.842 206.002C265.102 206.002 266.236 206.194 267.244 206.578C268.264 206.962 269.092 207.58 269.728 208.432C270.376 209.272 270.772 210.4 270.916 211.816H267.622C267.502 211.168 267.28 210.622 266.956 210.178C266.644 209.734 266.23 209.398 265.714 209.17C265.198 208.942 264.568 208.828 263.824 208.828C263.2 208.828 262.636 208.918 262.132 209.098C261.628 209.266 261.226 209.536 260.926 209.908C260.626 210.28 260.476 210.772 260.476 211.384C260.476 212.056 260.656 212.596 261.016 213.004C261.376 213.412 261.886 213.754 262.546 214.03C263.206 214.294 263.98 214.558 264.868 214.822C265.552 215.038 266.284 215.266 267.064 215.506C267.844 215.734 268.576 216.04 269.26 216.424C269.956 216.808 270.52 217.324 270.952 217.972C271.396 218.608 271.618 219.442 271.618 220.474C271.618 222.322 270.934 223.756 269.566 224.776C268.198 225.796 266.41 226.306 264.202 226.306ZM283.369 226.27C281.641 226.27 280.123 225.88 278.815 225.1C277.519 224.32 276.505 223.174 275.773 221.662C275.053 220.138 274.693 218.272 274.693 216.064C274.693 213.976 275.077 212.176 275.845 210.664C276.613 209.152 277.657 207.994 278.977 207.19C280.309 206.374 281.797 205.966 283.441 205.966C285.229 205.966 286.771 206.374 288.067 207.19C289.375 207.994 290.383 209.152 291.091 210.664C291.799 212.176 292.153 213.976 292.153 216.064C292.153 218.272 291.757 220.138 290.965 221.662C290.185 223.174 289.129 224.32 287.797 225.1C286.465 225.88 284.989 226.27 283.369 226.27ZM283.441 223.318C285.049 223.318 286.333 222.718 287.293 221.518C288.253 220.318 288.733 218.5 288.733 216.064C288.733 213.736 288.259 211.966 287.311 210.754C286.375 209.53 285.061 208.918 283.369 208.918C281.773 208.918 280.495 209.53 279.535 210.754C278.587 211.966 278.113 213.736 278.113 216.064C278.113 218.416 278.593 220.216 279.553 221.464C280.525 222.7 281.821 223.318 283.441 223.318ZM296.698 226V206.344H299.542L299.902 213.76L299.578 212.266C299.734 211.102 300.058 210.046 300.55 209.098C301.054 208.138 301.756 207.376 302.656 206.812C303.568 206.236 304.714 205.948 306.094 205.948C307.918 205.948 309.334 206.512 310.342 207.64C311.362 208.756 311.872 210.424 311.872 212.644V226H308.524V213.742C308.524 212.626 308.398 211.726 308.146 211.042C307.906 210.358 307.516 209.86 306.976 209.548C306.448 209.236 305.74 209.08 304.852 209.08C303.784 209.08 302.842 209.374 302.026 209.962C301.222 210.55 300.562 211.36 300.046 212.392V226H296.698ZM319.543 212.77C318.883 212.77 318.325 212.542 317.869 212.086C317.413 211.63 317.185 211.036 317.185 210.304C317.185 209.584 317.413 208.996 317.869 208.54C318.325 208.084 318.883 207.856 319.543 207.856C320.203 207.856 320.761 208.084 321.217 208.54C321.673 208.996 321.901 209.584 321.901 210.304C321.901 211.036 321.673 211.63 321.217 212.086C320.761 212.542 320.203 212.77 319.543 212.77ZM319.543 226.27C318.883 226.27 318.325 226.042 317.869 225.586C317.413 225.13 317.185 224.536 317.185 223.804C317.185 223.084 317.413 222.496 317.869 222.04C318.325 221.584 318.883 221.356 319.543 221.356C320.203 221.356 320.761 221.584 321.217 222.04C321.673 222.496 321.901 223.084 321.901 223.804C321.901 224.536 321.673 225.13 321.217 225.586C320.761 226.042 320.203 226.27 319.543 226.27Z" fill="white"/>
</svg>
