<svg width="731" height="346" viewBox="0 0 731 346" fill="none" xmlns="http://www.w3.org/2000/svg">
<path opacity="0.9" d="M465.657 245.675L563.063 196.003L660.47 245.675L563.063 295.348L465.657 245.675Z" stroke="#FF8B59" stroke-width="3"/>
<path d="M714.807 172.609L588.967 242.06L365.741 128.392L491.581 58.9414L714.807 172.609Z" fill="black" stroke="white" stroke-width="3" stroke-miterlimit="10"/>
<path d="M430.148 92.8262L653.374 206.494" stroke="white" stroke-width="3" stroke-miterlimit="10"/>
<path d="M608.678 118.306V100.42L482.918 169.661V169.923V187.809L608.678 118.568V118.306Z" fill="black" stroke="white" stroke-width="3" stroke-miterlimit="10"/>
<path d="M672.626 195.887V223.183" stroke="white" stroke-width="3" stroke-miterlimit="10"/>
<path d="M563.934 229.469V286.388" stroke="white" stroke-width="3" stroke-miterlimit="10"/>
<path d="M392.745 142.143V199.061" stroke="white" stroke-width="3" stroke-miterlimit="10"/>
<path d="M50.3094 173.15L50.2814 164.89H30.8214L48.0414 132.438H55.3494L55.2374 132.578L55.3774 160.214H60.6134V164.89H55.3774L55.4054 173.15H50.3094ZM38.0734 161.054C38.4281 160.793 38.8201 160.588 39.2494 160.438C39.6974 160.289 40.1268 160.214 40.5374 160.214H52.2414C51.4388 160.214 50.9161 159.897 50.6734 159.262C50.4308 158.628 50.3094 157.965 50.3094 157.274L50.2814 144.394L50.5614 137.226L47.3974 143.974L39.8654 158.226L38.0734 161.054ZM67.4078 173.57C66.3811 173.57 65.5131 173.216 64.8038 172.506C64.0945 171.797 63.7398 170.873 63.7398 169.734C63.7398 168.614 64.0945 167.7 64.8038 166.99C65.5131 166.281 66.3811 165.926 67.4078 165.926C68.4345 165.926 69.3025 166.281 70.0118 166.99C70.7211 167.7 71.0758 168.614 71.0758 169.734C71.0758 170.873 70.7211 171.797 70.0118 172.506C69.3025 173.216 68.4345 173.57 67.4078 173.57ZM74.4174 173.15C75.4254 171.918 76.4708 170.64 77.5534 169.314C78.6548 167.97 79.7561 166.617 80.8574 165.254C81.9774 163.892 83.0788 162.557 84.1614 161.25C85.2441 159.925 86.2708 158.665 87.2414 157.47C88.6974 155.716 90.0414 154.073 91.2734 152.542C92.5054 151.012 93.4948 149.481 94.2414 147.95C95.0068 146.401 95.3894 144.768 95.3894 143.05C95.3894 140.885 94.7828 139.214 93.5694 138.038C92.3561 136.844 90.6388 136.256 88.4174 136.274C86.8681 136.274 85.4774 136.564 84.2454 137.142C83.0321 137.721 82.0988 138.701 81.4454 140.082C80.8108 141.464 80.5774 143.368 80.7454 145.794H75.7334C75.4348 142.434 75.7988 139.718 76.8254 137.646C77.8521 135.556 79.3921 134.025 81.4454 133.054C83.4988 132.084 85.9068 131.598 88.6694 131.598C91.1521 131.598 93.2801 132.046 95.0534 132.942C96.8454 133.82 98.2174 135.089 99.1694 136.75C100.14 138.412 100.616 140.39 100.597 142.686C100.597 144.87 100.243 146.83 99.5334 148.566C98.8241 150.284 97.8814 151.936 96.7054 153.522C95.5294 155.09 94.2414 156.742 92.8414 158.478C91.9641 159.561 91.0774 160.653 90.1814 161.754C89.2854 162.837 88.4268 163.882 87.6054 164.89C86.7841 165.88 86.0374 166.776 85.3654 167.578C84.7121 168.362 84.1894 169.006 83.7974 169.51C84.3574 168.913 85.0481 168.558 85.8694 168.446C86.6908 168.316 87.8014 168.25 89.2014 168.25H100.737V173.15H74.4174ZM117.887 173.15V142.574H122.311L122.899 154.11L122.395 151.786C122.638 149.976 123.142 148.333 123.907 146.858C124.673 145.365 125.755 144.18 127.155 143.302C128.555 142.406 130.319 141.958 132.447 141.958C134.93 141.958 136.899 142.658 138.355 144.058C139.83 145.44 140.735 147.568 141.071 150.442L141.211 150.862V173.15H136.003V154.11C136.003 152.374 135.817 150.974 135.443 149.91C135.089 148.846 134.51 148.072 133.707 147.586C132.905 147.082 131.85 146.83 130.543 146.83C128.901 146.83 127.454 147.288 126.203 148.202C124.953 149.117 123.926 150.377 123.123 151.982V173.15H117.887ZM154.119 173.15V154.082C154.119 152.365 153.933 150.974 153.559 149.91C153.186 148.846 152.598 148.072 151.795 147.586C151.011 147.082 149.966 146.83 148.659 146.83C147.017 146.83 145.57 147.288 144.319 148.202C143.069 149.117 142.033 150.377 141.211 151.982L141.099 154.11L140.595 152.122C140.801 150.349 141.277 148.688 142.023 147.138C142.77 145.589 143.834 144.338 145.215 143.386C146.615 142.434 148.37 141.958 150.479 141.958C153.261 141.958 155.426 142.836 156.975 144.59C158.543 146.345 159.327 148.94 159.327 152.374V173.15H154.119ZM164.531 148.706C164.979 148.165 165.576 147.446 166.323 146.55C167.088 145.636 167.9 144.656 168.759 143.61C169.636 142.546 170.476 141.52 171.279 140.53C172.1 139.541 172.791 138.701 173.351 138.01C174.433 136.685 175.376 135.537 176.179 134.566C176.981 133.577 177.597 132.662 178.027 131.822C178.475 130.982 178.699 130.105 178.699 129.19C178.699 128.089 178.363 127.184 177.691 126.474C177.019 125.765 175.964 125.41 174.527 125.41C173.089 125.41 171.923 125.858 171.027 126.754C170.149 127.632 169.86 129.106 170.159 131.178H165.651C165.389 128.845 165.604 126.95 166.295 125.494C167.004 124.038 168.087 122.974 169.543 122.302C170.999 121.63 172.697 121.294 174.639 121.294C177.439 121.294 179.585 121.966 181.079 123.31C182.572 124.654 183.319 126.437 183.319 128.658C183.319 130.077 183.076 131.365 182.591 132.522C182.124 133.661 181.517 134.734 180.771 135.742C180.024 136.732 179.231 137.73 178.391 138.738C177.756 139.485 177.093 140.269 176.403 141.09C175.712 141.893 175.059 142.658 174.443 143.386C173.827 144.114 173.304 144.749 172.875 145.29C173.285 144.88 173.761 144.628 174.303 144.534C174.844 144.422 175.6 144.366 176.571 144.366H183.347V148.706H164.531Z" fill="white"/>
<path d="M44.2235 265.547C42.6995 265.547 41.5355 265.157 40.7315 264.377C39.9395 263.585 39.5435 262.463 39.5435 261.011V250.355C39.5435 249.971 39.6215 249.617 39.7775 249.293C39.9335 248.957 40.1615 248.741 40.4615 248.645L39.5435 246.413V245.801L40.3535 239.933H42.8555V260.453C42.8555 261.221 43.0355 261.743 43.3955 262.019C43.7555 262.283 44.3735 262.415 45.2495 262.415C45.8855 262.415 46.4255 262.415 46.8695 262.415C47.3135 262.403 47.7755 262.379 48.2555 262.343V265.295C47.5955 265.415 46.9115 265.487 46.2035 265.511C45.5075 265.535 44.8475 265.547 44.2235 265.547ZM36.6815 248.645V245.621H48.0935V248.645H36.6815ZM57.2266 265.493C55.9786 265.493 54.8986 265.259 53.9866 264.791C53.0866 264.311 52.3906 263.663 51.8986 262.847C51.4186 262.031 51.1786 261.107 51.1786 260.075C51.1786 259.007 51.3886 258.107 51.8086 257.375C52.2286 256.631 52.8346 256.025 53.6266 255.557C54.4186 255.077 55.3786 254.717 56.5066 254.477C57.2506 254.309 58.0366 254.177 58.8646 254.081C59.7046 253.985 60.5086 253.907 61.2766 253.847C62.0446 253.787 62.6986 253.745 63.2386 253.721V252.623C63.2386 251.051 62.9086 249.923 62.2486 249.239C61.5886 248.543 60.5626 248.195 59.1706 248.195C58.3066 248.195 57.5446 248.309 56.8846 248.537C56.2366 248.765 55.7326 249.191 55.3726 249.815C55.0126 250.427 54.8386 251.327 54.8506 252.515H51.7186C51.5746 250.895 51.8026 249.551 52.4026 248.483C53.0026 247.403 53.9026 246.599 55.1026 246.071C56.3026 245.531 57.7246 245.261 59.3686 245.261C60.3046 245.261 61.1986 245.375 62.0506 245.603C62.9026 245.819 63.6586 246.191 64.3186 246.719C64.9786 247.235 65.5006 247.943 65.8846 248.843C66.2686 249.743 66.4606 250.871 66.4606 252.227V265.277H63.2026L63.2386 261.011C62.9386 262.367 62.2606 263.453 61.2046 264.269C60.1606 265.085 58.8346 265.493 57.2266 265.493ZM58.0006 262.847C58.8766 262.847 59.6806 262.685 60.4126 262.361C61.1566 262.037 61.7806 261.623 62.2846 261.119C62.7886 260.615 63.1066 260.099 63.2386 259.571V255.755C62.5426 255.803 61.7686 255.887 60.9166 256.007C60.0646 256.115 59.3146 256.247 58.6666 256.403C57.3706 256.703 56.4046 257.105 55.7686 257.609C55.1446 258.113 54.8326 258.839 54.8326 259.787C54.8326 260.351 54.9526 260.867 55.1926 261.335C55.4446 261.791 55.8046 262.157 56.2726 262.433C56.7406 262.697 57.3166 262.835 58.0006 262.847ZM80.7824 265.493C79.4984 265.493 78.4664 265.265 77.6864 264.809C76.9184 264.353 76.3424 263.825 75.9584 263.225C75.5864 262.625 75.3584 262.121 75.2744 261.713L74.4284 261.119L75.5084 260.669C75.5804 260.909 75.7964 261.197 76.1564 261.533C76.5164 261.869 77.0024 262.163 77.6144 262.415C78.2384 262.667 78.9584 262.793 79.7744 262.793C81.3104 262.793 82.5704 262.187 83.5544 260.975C84.5384 259.763 85.0304 257.891 85.0304 255.359C85.0304 252.947 84.5744 251.153 83.6624 249.977C82.7624 248.801 81.6164 248.213 80.2244 248.213C79.2644 248.213 78.4544 248.363 77.7944 248.663C77.1344 248.963 76.6184 249.323 76.2464 249.743C75.8744 250.163 75.6284 250.565 75.5084 250.949L75.2024 250.427L75.5084 249.941C75.5684 249.149 75.8084 248.399 76.2284 247.691C76.6604 246.971 77.2904 246.389 78.1184 245.945C78.9464 245.489 79.9844 245.261 81.2324 245.261C82.7204 245.261 84.0044 245.663 85.0844 246.467C86.1644 247.259 86.9984 248.393 87.5864 249.869C88.1744 251.333 88.4684 253.079 88.4684 255.107C88.4684 256.847 88.2464 258.371 87.8024 259.679C87.3584 260.975 86.7644 262.055 86.0204 262.919C85.2764 263.783 84.4484 264.431 83.5364 264.863C82.6364 265.283 81.7184 265.493 80.7824 265.493ZM72.1964 265.277L72.1784 237.269H75.5084V246.053L75.5264 261.029L75.8504 261.677L75.5084 262.091L75.3644 265.277H72.1964ZM93.1143 265.277V237.287H96.4623V265.277H93.1143ZM109.935 265.547C108.147 265.547 106.575 265.157 105.219 264.377C103.875 263.597 102.831 262.451 102.087 260.939C101.343 259.415 100.971 257.555 100.971 255.359C100.971 253.247 101.355 251.435 102.123 249.923C102.891 248.411 103.947 247.253 105.291 246.449C106.635 245.645 108.165 245.243 109.881 245.243C111.585 245.243 113.043 245.609 114.255 246.341C115.479 247.073 116.421 248.123 117.081 249.491C117.741 250.847 118.065 252.473 118.053 254.369C118.053 254.753 118.041 255.071 118.017 255.323C117.993 255.575 117.975 255.839 117.963 256.115H104.319C104.403 258.275 104.943 259.913 105.939 261.029C106.947 262.133 108.231 262.685 109.791 262.685C111.111 262.685 112.131 262.409 112.851 261.857C113.583 261.293 114.045 260.573 114.237 259.697H117.513C117.429 260.945 117.045 262.007 116.361 262.883C115.689 263.759 114.801 264.425 113.697 264.881C112.593 265.325 111.339 265.547 109.935 265.547ZM106.101 253.595H114.687C114.663 251.915 114.249 250.595 113.445 249.635C112.641 248.675 111.411 248.195 109.755 248.195C108.015 248.195 106.695 248.789 105.795 249.977C104.895 251.153 104.403 252.779 104.319 254.855C104.415 254.363 104.607 254.033 104.895 253.865C105.195 253.685 105.597 253.595 106.101 253.595ZM134.54 265.547C133.016 265.547 131.852 265.157 131.048 264.377C130.256 263.585 129.86 262.463 129.86 261.011V250.355C129.86 249.971 129.938 249.617 130.094 249.293C130.25 248.957 130.478 248.741 130.778 248.645L129.86 246.413V245.801L130.67 239.933H133.172V260.453C133.172 261.221 133.352 261.743 133.712 262.019C134.072 262.283 134.69 262.415 135.566 262.415C136.202 262.415 136.742 262.415 137.186 262.415C137.63 262.403 138.092 262.379 138.572 262.343V265.295C137.912 265.415 137.228 265.487 136.52 265.511C135.824 265.535 135.164 265.547 134.54 265.547ZM126.998 248.645V245.621H138.41V248.645H126.998ZM149.802 265.547C148.014 265.547 146.442 265.157 145.086 264.377C143.742 263.597 142.698 262.451 141.954 260.939C141.21 259.415 140.838 257.555 140.838 255.359C140.838 253.247 141.222 251.435 141.99 249.923C142.758 248.411 143.814 247.253 145.158 246.449C146.502 245.645 148.032 245.243 149.748 245.243C151.452 245.243 152.91 245.609 154.122 246.341C155.346 247.073 156.288 248.123 156.948 249.491C157.608 250.847 157.932 252.473 157.92 254.369C157.92 254.753 157.908 255.071 157.884 255.323C157.86 255.575 157.842 255.839 157.83 256.115H144.186C144.27 258.275 144.81 259.913 145.806 261.029C146.814 262.133 148.098 262.685 149.658 262.685C150.978 262.685 151.998 262.409 152.718 261.857C153.45 261.293 153.912 260.573 154.104 259.697H157.38C157.296 260.945 156.912 262.007 156.228 262.883C155.556 263.759 154.668 264.425 153.564 264.881C152.46 265.325 151.206 265.547 149.802 265.547ZM145.968 253.595H154.554C154.53 251.915 154.116 250.595 153.312 249.635C152.508 248.675 151.278 248.195 149.622 248.195C147.882 248.195 146.562 248.789 145.662 249.977C144.762 251.153 144.27 252.779 144.186 254.855C144.282 254.363 144.474 254.033 144.762 253.865C145.062 253.685 145.464 253.595 145.968 253.595ZM162.301 265.277V245.621H165.145L165.505 253.037L165.181 251.543C165.337 250.379 165.661 249.323 166.153 248.375C166.657 247.415 167.359 246.653 168.259 246.089C169.171 245.513 170.317 245.225 171.697 245.225C173.521 245.225 174.937 245.789 175.945 246.917C176.965 248.033 177.475 249.701 177.475 251.921V265.277H174.127V253.019C174.127 251.903 174.001 251.003 173.749 250.319C173.509 249.635 173.119 249.137 172.579 248.825C172.051 248.513 171.343 248.357 170.455 248.357C169.387 248.357 168.445 248.651 167.629 249.239C166.825 249.827 166.165 250.637 165.649 251.669V265.277H162.301ZM183.184 265.277V245.621H186.028L186.388 253.037L186.064 251.543C186.22 250.379 186.544 249.323 187.036 248.375C187.54 247.415 188.242 246.653 189.142 246.089C190.054 245.513 191.2 245.225 192.58 245.225C194.404 245.225 195.82 245.789 196.828 246.917C197.848 248.033 198.358 249.701 198.358 251.921V265.277H195.01V253.019C195.01 251.903 194.884 251.003 194.632 250.319C194.392 249.635 194.002 249.137 193.462 248.825C192.934 248.513 192.226 248.357 191.338 248.357C190.27 248.357 189.328 248.651 188.512 249.239C187.708 249.827 187.048 250.637 186.532 251.669V265.277H183.184ZM204.197 265.277V245.747H207.581L207.527 265.277H204.197ZM205.907 242.597C205.247 242.597 204.683 242.369 204.215 241.913C203.759 241.457 203.531 240.869 203.531 240.149C203.531 239.441 203.759 238.859 204.215 238.403C204.683 237.947 205.247 237.719 205.907 237.719C206.555 237.719 207.107 237.947 207.563 238.403C208.031 238.859 208.265 239.441 208.265 240.149C208.265 240.869 208.031 241.457 207.563 241.913C207.095 242.369 206.543 242.597 205.907 242.597ZM219.418 265.583C218.062 265.583 216.82 265.379 215.692 264.971C214.576 264.551 213.67 263.903 212.974 263.027C212.278 262.139 211.888 260.999 211.804 259.607H215.116C215.332 260.807 215.806 261.635 216.538 262.091C217.282 262.535 218.224 262.757 219.364 262.757C220.144 262.757 220.846 262.673 221.47 262.505C222.106 262.337 222.61 262.055 222.982 261.659C223.354 261.263 223.54 260.723 223.54 260.039C223.54 259.511 223.426 259.085 223.198 258.761C222.97 258.437 222.652 258.173 222.244 257.969C221.836 257.753 221.356 257.567 220.804 257.411C220.264 257.255 219.676 257.087 219.04 256.907C217.852 256.559 216.754 256.157 215.746 255.701C214.738 255.233 213.928 254.609 213.316 253.829C212.704 253.049 212.398 252.005 212.398 250.697C212.398 249.089 213.01 247.787 214.234 246.791C215.458 245.783 217.066 245.279 219.058 245.279C220.318 245.279 221.452 245.471 222.46 245.855C223.48 246.239 224.308 246.857 224.944 247.709C225.592 248.549 225.988 249.677 226.132 251.093H222.838C222.718 250.445 222.496 249.899 222.172 249.455C221.86 249.011 221.446 248.675 220.93 248.447C220.414 248.219 219.784 248.105 219.04 248.105C218.416 248.105 217.852 248.195 217.348 248.375C216.844 248.543 216.442 248.813 216.142 249.185C215.842 249.557 215.692 250.049 215.692 250.661C215.692 251.333 215.872 251.873 216.232 252.281C216.592 252.689 217.102 253.031 217.762 253.307C218.422 253.571 219.196 253.835 220.084 254.099C220.768 254.315 221.5 254.543 222.28 254.783C223.06 255.011 223.792 255.317 224.476 255.701C225.172 256.085 225.736 256.601 226.168 257.249C226.612 257.885 226.834 258.719 226.834 259.751C226.834 261.599 226.15 263.033 224.782 264.053C223.414 265.073 221.626 265.583 219.418 265.583ZM246.367 265.493C245.095 265.493 244.069 265.271 243.289 264.827C242.521 264.371 241.951 263.849 241.579 263.261C241.207 262.673 240.985 262.181 240.913 261.785L239.851 261.605L241.129 260.669C241.237 260.957 241.471 261.263 241.831 261.587C242.191 261.911 242.677 262.193 243.289 262.433C243.913 262.661 244.651 262.775 245.503 262.775C246.979 262.775 248.203 262.169 249.175 260.957C250.159 259.745 250.651 257.843 250.651 255.251C250.651 252.923 250.195 251.171 249.283 249.995C248.383 248.807 247.231 248.213 245.827 248.213C244.879 248.213 244.075 248.363 243.415 248.663C242.767 248.963 242.251 249.329 241.867 249.761C241.495 250.181 241.249 250.589 241.129 250.985V249.653C241.153 249.269 241.273 248.831 241.489 248.339C241.705 247.835 242.035 247.349 242.479 246.881C242.935 246.413 243.517 246.029 244.225 245.729C244.933 245.417 245.797 245.261 246.817 245.261C248.317 245.261 249.613 245.663 250.705 246.467C251.797 247.271 252.637 248.405 253.225 249.869C253.813 251.333 254.107 253.049 254.107 255.017C254.107 256.805 253.885 258.359 253.441 259.679C252.997 260.987 252.397 262.073 251.641 262.937C250.897 263.801 250.063 264.443 249.139 264.863C248.227 265.283 247.303 265.493 246.367 265.493ZM237.799 272.531V245.621H241.093L241.129 248.285V260.669L240.913 261.785L241.129 265.295L241.147 272.531H237.799ZM258.735 265.277V237.287H262.083V265.277H258.735ZM272.805 265.493C271.557 265.493 270.477 265.259 269.565 264.791C268.665 264.311 267.969 263.663 267.477 262.847C266.997 262.031 266.757 261.107 266.757 260.075C266.757 259.007 266.967 258.107 267.387 257.375C267.807 256.631 268.413 256.025 269.205 255.557C269.997 255.077 270.957 254.717 272.085 254.477C272.829 254.309 273.615 254.177 274.443 254.081C275.283 253.985 276.087 253.907 276.855 253.847C277.623 253.787 278.277 253.745 278.817 253.721V252.623C278.817 251.051 278.487 249.923 277.827 249.239C277.167 248.543 276.141 248.195 274.749 248.195C273.885 248.195 273.123 248.309 272.463 248.537C271.815 248.765 271.311 249.191 270.951 249.815C270.591 250.427 270.417 251.327 270.429 252.515H267.297C267.153 250.895 267.381 249.551 267.981 248.483C268.581 247.403 269.481 246.599 270.681 246.071C271.881 245.531 273.303 245.261 274.947 245.261C275.883 245.261 276.777 245.375 277.629 245.603C278.481 245.819 279.237 246.191 279.897 246.719C280.557 247.235 281.079 247.943 281.463 248.843C281.847 249.743 282.039 250.871 282.039 252.227V265.277H278.781L278.817 261.011C278.517 262.367 277.839 263.453 276.783 264.269C275.739 265.085 274.413 265.493 272.805 265.493ZM273.579 262.847C274.455 262.847 275.259 262.685 275.991 262.361C276.735 262.037 277.359 261.623 277.863 261.119C278.367 260.615 278.685 260.099 278.817 259.571V255.755C278.121 255.803 277.347 255.887 276.495 256.007C275.643 256.115 274.893 256.247 274.245 256.403C272.949 256.703 271.983 257.105 271.347 257.609C270.723 258.113 270.411 258.839 270.411 259.787C270.411 260.351 270.531 260.867 270.771 261.335C271.023 261.791 271.383 262.157 271.851 262.433C272.319 262.697 272.895 262.835 273.579 262.847ZM292.884 265.547C291.36 265.547 290.196 265.157 289.392 264.377C288.6 263.585 288.204 262.463 288.204 261.011V250.355C288.204 249.971 288.282 249.617 288.438 249.293C288.594 248.957 288.822 248.741 289.122 248.645L288.204 246.413V245.801L289.014 239.933H291.516V260.453C291.516 261.221 291.696 261.743 292.056 262.019C292.416 262.283 293.034 262.415 293.91 262.415C294.546 262.415 295.086 262.415 295.53 262.415C295.974 262.403 296.436 262.379 296.916 262.343V265.295C296.256 265.415 295.572 265.487 294.864 265.511C294.168 265.535 293.508 265.547 292.884 265.547ZM285.342 248.645V245.621H296.754V248.645H285.342ZM308.146 265.547C306.358 265.547 304.786 265.157 303.43 264.377C302.086 263.597 301.042 262.451 300.298 260.939C299.554 259.415 299.182 257.555 299.182 255.359C299.182 253.247 299.566 251.435 300.334 249.923C301.102 248.411 302.158 247.253 303.502 246.449C304.846 245.645 306.376 245.243 308.092 245.243C309.796 245.243 311.254 245.609 312.466 246.341C313.69 247.073 314.632 248.123 315.292 249.491C315.952 250.847 316.276 252.473 316.264 254.369C316.264 254.753 316.252 255.071 316.228 255.323C316.204 255.575 316.186 255.839 316.174 256.115H302.53C302.614 258.275 303.154 259.913 304.15 261.029C305.158 262.133 306.442 262.685 308.002 262.685C309.322 262.685 310.342 262.409 311.062 261.857C311.794 261.293 312.256 260.573 312.448 259.697H315.724C315.64 260.945 315.256 262.007 314.572 262.883C313.9 263.759 313.012 264.425 311.908 264.881C310.804 265.325 309.55 265.547 308.146 265.547ZM304.312 253.595H312.898C312.874 251.915 312.46 250.595 311.656 249.635C310.852 248.675 309.622 248.195 307.966 248.195C306.226 248.195 304.906 248.789 304.006 249.977C303.106 251.153 302.614 252.779 302.53 254.855C302.626 254.363 302.818 254.033 303.106 253.865C303.406 253.685 303.808 253.595 304.312 253.595Z" fill="white"/>
<path d="M38.5177 226.23V206.574H41.3617L41.7217 214.134L41.3257 213.108C41.4097 212.364 41.5717 211.59 41.8117 210.786C42.0637 209.982 42.4177 209.232 42.8737 208.536C43.3417 207.828 43.9357 207.258 44.6557 206.826C45.3877 206.394 46.2817 206.178 47.3377 206.178C47.5417 206.178 47.7337 206.19 47.9137 206.214C48.1057 206.238 48.2917 206.268 48.4717 206.304V209.85C48.1717 209.754 47.8537 209.694 47.5177 209.67C47.1937 209.634 46.8877 209.616 46.5997 209.616C46.0117 209.616 45.4177 209.73 44.8177 209.958C44.2177 210.186 43.6597 210.552 43.1437 211.056C42.6277 211.548 42.2017 212.19 41.8657 212.982V226.23H38.5177ZM56.4901 226.446C55.2421 226.446 54.1621 226.212 53.2501 225.744C52.3501 225.264 51.6541 224.616 51.1621 223.8C50.6821 222.984 50.4421 222.06 50.4421 221.028C50.4421 219.96 50.6521 219.06 51.0721 218.328C51.4921 217.584 52.0981 216.978 52.8901 216.51C53.6821 216.03 54.6421 215.67 55.7701 215.43C56.5141 215.262 57.3001 215.13 58.1281 215.034C58.9681 214.938 59.7721 214.86 60.5401 214.8C61.3081 214.74 61.9621 214.698 62.5021 214.674V213.576C62.5021 212.004 62.1721 210.876 61.5121 210.192C60.8521 209.496 59.8261 209.148 58.4341 209.148C57.5701 209.148 56.8081 209.262 56.1481 209.49C55.5001 209.718 54.9961 210.144 54.6361 210.768C54.2761 211.38 54.1021 212.28 54.1141 213.468H50.9821C50.8381 211.848 51.0661 210.504 51.6661 209.436C52.2661 208.356 53.1661 207.552 54.3661 207.024C55.5661 206.484 56.9881 206.214 58.6321 206.214C59.5681 206.214 60.4621 206.328 61.3141 206.556C62.1661 206.772 62.9221 207.144 63.5821 207.672C64.2421 208.188 64.7641 208.896 65.1481 209.796C65.5321 210.696 65.7241 211.824 65.7241 213.18V226.23H62.4661L62.5021 221.964C62.2021 223.32 61.5241 224.406 60.4681 225.222C59.4241 226.038 58.0981 226.446 56.4901 226.446ZM57.2641 223.8C58.1401 223.8 58.9441 223.638 59.6761 223.314C60.4201 222.99 61.0441 222.576 61.5481 222.072C62.0521 221.568 62.3701 221.052 62.5021 220.524V216.708C61.8061 216.756 61.0321 216.84 60.1801 216.96C59.3281 217.068 58.5781 217.2 57.9301 217.356C56.6341 217.656 55.6681 218.058 55.0321 218.562C54.4081 219.066 54.0961 219.792 54.0961 220.74C54.0961 221.304 54.2161 221.82 54.4561 222.288C54.7081 222.744 55.0681 223.11 55.5361 223.386C56.0041 223.65 56.5801 223.788 57.2641 223.8ZM76.5691 226.5C75.0451 226.5 73.8811 226.11 73.0771 225.33C72.2851 224.538 71.8891 223.416 71.8891 221.964V211.308C71.8891 210.924 71.9671 210.57 72.1231 210.246C72.2791 209.91 72.5071 209.694 72.8071 209.598L71.8891 207.366V206.754L72.6991 200.886H75.2011V221.406C75.2011 222.174 75.3811 222.696 75.7411 222.972C76.1011 223.236 76.7191 223.368 77.5951 223.368C78.2311 223.368 78.7711 223.368 79.2151 223.368C79.6591 223.356 80.1211 223.332 80.6011 223.296V226.248C79.9411 226.368 79.2571 226.44 78.5491 226.464C77.8531 226.488 77.1931 226.5 76.5691 226.5ZM69.0271 209.598V206.574H80.4391V209.598H69.0271ZM84.4213 226.23V206.7H87.8053L87.7513 226.23H84.4213ZM86.1313 203.55C85.4713 203.55 84.9073 203.322 84.4393 202.866C83.9833 202.41 83.7553 201.822 83.7553 201.102C83.7553 200.394 83.9833 199.812 84.4393 199.356C84.9073 198.9 85.4713 198.672 86.1313 198.672C86.7793 198.672 87.3313 198.9 87.7873 199.356C88.2553 199.812 88.4893 200.394 88.4893 201.102C88.4893 201.822 88.2553 202.41 87.7873 202.866C87.3193 203.322 86.7673 203.55 86.1313 203.55ZM101.091 226.5C99.3633 226.5 97.8453 226.11 96.5373 225.33C95.2413 224.55 94.2273 223.404 93.4953 221.892C92.7753 220.368 92.4153 218.502 92.4153 216.294C92.4153 214.206 92.7993 212.406 93.5673 210.894C94.3353 209.382 95.3793 208.224 96.6993 207.42C98.0313 206.604 99.5193 206.196 101.163 206.196C102.951 206.196 104.493 206.604 105.789 207.42C107.097 208.224 108.105 209.382 108.813 210.894C109.521 212.406 109.875 214.206 109.875 216.294C109.875 218.502 109.479 220.368 108.687 221.892C107.907 223.404 106.851 224.55 105.519 225.33C104.187 226.11 102.711 226.5 101.091 226.5ZM101.163 223.548C102.771 223.548 104.055 222.948 105.015 221.748C105.975 220.548 106.455 218.73 106.455 216.294C106.455 213.966 105.981 212.196 105.033 210.984C104.097 209.76 102.783 209.148 101.091 209.148C99.4953 209.148 98.2173 209.76 97.2573 210.984C96.3093 212.196 95.8353 213.966 95.8353 216.294C95.8353 218.646 96.3153 220.446 97.2753 221.694C98.2473 222.93 99.5433 223.548 101.163 223.548ZM128.485 226.554C126.661 226.554 125.077 226.14 123.733 225.312C122.389 224.484 121.351 223.308 120.619 221.784C119.887 220.26 119.521 218.466 119.521 216.402C119.521 214.23 119.893 212.388 120.637 210.876C121.393 209.364 122.431 208.212 123.751 207.42C125.083 206.616 126.601 206.214 128.305 206.214C129.937 206.214 131.323 206.532 132.463 207.168C133.603 207.792 134.473 208.626 135.073 209.67C135.685 210.714 136.009 211.866 136.045 213.126H132.751C132.727 212.646 132.625 212.172 132.445 211.704C132.265 211.236 131.995 210.816 131.635 210.444C131.275 210.06 130.813 209.754 130.249 209.526C129.697 209.286 129.031 209.166 128.251 209.166C126.439 209.154 125.101 209.784 124.237 211.056C123.373 212.328 122.941 214.074 122.941 216.294C122.941 218.67 123.421 220.482 124.381 221.73C125.341 222.978 126.781 223.602 128.701 223.602C129.445 223.602 130.111 223.434 130.699 223.098C131.287 222.762 131.755 222.324 132.103 221.784C132.463 221.244 132.655 220.668 132.679 220.056H135.973C135.937 221.292 135.589 222.402 134.929 223.386C134.269 224.37 133.381 225.144 132.265 225.708C131.149 226.272 129.889 226.554 128.485 226.554ZM147.638 226.5C145.91 226.5 144.392 226.11 143.084 225.33C141.788 224.55 140.774 223.404 140.042 221.892C139.322 220.368 138.962 218.502 138.962 216.294C138.962 214.206 139.346 212.406 140.114 210.894C140.882 209.382 141.926 208.224 143.246 207.42C144.578 206.604 146.066 206.196 147.71 206.196C149.498 206.196 151.04 206.604 152.336 207.42C153.644 208.224 154.652 209.382 155.36 210.894C156.068 212.406 156.422 214.206 156.422 216.294C156.422 218.502 156.026 220.368 155.234 221.892C154.454 223.404 153.398 224.55 152.066 225.33C150.734 226.11 149.258 226.5 147.638 226.5ZM147.71 223.548C149.318 223.548 150.602 222.948 151.562 221.748C152.522 220.548 153.002 218.73 153.002 216.294C153.002 213.966 152.528 212.196 151.58 210.984C150.644 209.76 149.33 209.148 147.638 209.148C146.042 209.148 144.764 209.76 143.804 210.984C142.856 212.196 142.382 213.966 142.382 216.294C142.382 218.646 142.862 220.446 143.822 221.694C144.794 222.93 146.09 223.548 147.71 223.548ZM160.967 226.23V206.574H163.811L164.189 213.99L163.865 212.496C164.021 211.332 164.345 210.276 164.837 209.328C165.329 208.368 166.025 207.606 166.925 207.042C167.825 206.466 168.959 206.178 170.327 206.178C171.923 206.178 173.189 206.628 174.125 207.528C175.073 208.416 175.655 209.784 175.871 211.632L175.961 211.902V226.23H172.613V213.99C172.613 212.874 172.493 211.974 172.253 211.29C172.025 210.606 171.653 210.108 171.137 209.796C170.621 209.472 169.943 209.31 169.103 209.31C168.047 209.31 167.117 209.604 166.313 210.192C165.509 210.78 164.849 211.59 164.333 212.622V226.23H160.967ZM184.259 226.23V213.972C184.259 212.868 184.139 211.974 183.899 211.29C183.659 210.606 183.281 210.108 182.765 209.796C182.261 209.472 181.589 209.31 180.749 209.31C179.693 209.31 178.763 209.604 177.959 210.192C177.155 210.78 176.489 211.59 175.961 212.622L175.889 213.99L175.565 212.712C175.697 211.572 176.003 210.504 176.483 209.508C176.963 208.512 177.647 207.708 178.535 207.096C179.435 206.484 180.563 206.178 181.919 206.178C183.707 206.178 185.099 206.742 186.095 207.87C187.103 208.998 187.607 210.666 187.607 212.874V226.23H184.259ZM201.932 226.446C200.66 226.446 199.634 226.224 198.854 225.78C198.086 225.324 197.516 224.802 197.144 224.214C196.772 223.626 196.55 223.134 196.478 222.738L195.416 222.558L196.694 221.622C196.802 221.91 197.036 222.216 197.396 222.54C197.756 222.864 198.242 223.146 198.854 223.386C199.478 223.614 200.216 223.728 201.068 223.728C202.544 223.728 203.768 223.122 204.74 221.91C205.724 220.698 206.216 218.796 206.216 216.204C206.216 213.876 205.76 212.124 204.848 210.948C203.948 209.76 202.796 209.166 201.392 209.166C200.444 209.166 199.64 209.316 198.98 209.616C198.332 209.916 197.816 210.282 197.432 210.714C197.06 211.134 196.814 211.542 196.694 211.938V210.606C196.718 210.222 196.838 209.784 197.054 209.292C197.27 208.788 197.6 208.302 198.044 207.834C198.5 207.366 199.082 206.982 199.79 206.682C200.498 206.37 201.362 206.214 202.382 206.214C203.882 206.214 205.178 206.616 206.27 207.42C207.362 208.224 208.202 209.358 208.79 210.822C209.378 212.286 209.672 214.002 209.672 215.97C209.672 217.758 209.45 219.312 209.006 220.632C208.562 221.94 207.962 223.026 207.206 223.89C206.462 224.754 205.628 225.396 204.704 225.816C203.792 226.236 202.868 226.446 201.932 226.446ZM193.364 233.484V206.574H196.658L196.694 209.238V221.622L196.478 222.738L196.694 226.248L196.712 233.484H193.364ZM219.299 226.446C218.051 226.446 216.971 226.212 216.059 225.744C215.159 225.264 214.463 224.616 213.971 223.8C213.491 222.984 213.251 222.06 213.251 221.028C213.251 219.96 213.461 219.06 213.881 218.328C214.301 217.584 214.907 216.978 215.699 216.51C216.491 216.03 217.451 215.67 218.579 215.43C219.323 215.262 220.109 215.13 220.937 215.034C221.777 214.938 222.581 214.86 223.349 214.8C224.117 214.74 224.771 214.698 225.311 214.674V213.576C225.311 212.004 224.981 210.876 224.321 210.192C223.661 209.496 222.635 209.148 221.243 209.148C220.379 209.148 219.617 209.262 218.957 209.49C218.309 209.718 217.805 210.144 217.445 210.768C217.085 211.38 216.911 212.28 216.923 213.468H213.791C213.647 211.848 213.875 210.504 214.475 209.436C215.075 208.356 215.975 207.552 217.175 207.024C218.375 206.484 219.797 206.214 221.441 206.214C222.377 206.214 223.271 206.328 224.123 206.556C224.975 206.772 225.731 207.144 226.391 207.672C227.051 208.188 227.573 208.896 227.957 209.796C228.341 210.696 228.533 211.824 228.533 213.18V226.23H225.275L225.311 221.964C225.011 223.32 224.333 224.406 223.277 225.222C222.233 226.038 220.907 226.446 219.299 226.446ZM220.073 223.8C220.949 223.8 221.753 223.638 222.485 223.314C223.229 222.99 223.853 222.576 224.357 222.072C224.861 221.568 225.179 221.052 225.311 220.524V216.708C224.615 216.756 223.841 216.84 222.989 216.96C222.137 217.068 221.387 217.2 220.739 217.356C219.443 217.656 218.477 218.058 217.841 218.562C217.217 219.066 216.905 219.792 216.905 220.74C216.905 221.304 217.025 221.82 217.265 222.288C217.517 222.744 217.877 223.11 218.345 223.386C218.813 223.65 219.389 223.788 220.073 223.8ZM234.197 226.23V206.574H237.041L237.401 214.134L237.005 213.108C237.089 212.364 237.251 211.59 237.491 210.786C237.743 209.982 238.097 209.232 238.553 208.536C239.021 207.828 239.615 207.258 240.335 206.826C241.067 206.394 241.961 206.178 243.017 206.178C243.221 206.178 243.413 206.19 243.593 206.214C243.785 206.238 243.971 206.268 244.151 206.304V209.85C243.851 209.754 243.533 209.694 243.197 209.67C242.873 209.634 242.567 209.616 242.279 209.616C241.691 209.616 241.097 209.73 240.497 209.958C239.897 210.186 239.339 210.552 238.823 211.056C238.307 211.548 237.881 212.19 237.545 212.982V226.23H234.197ZM247.546 226.23V206.7H250.93L250.876 226.23H247.546ZM249.256 203.55C248.596 203.55 248.032 203.322 247.564 202.866C247.108 202.41 246.88 201.822 246.88 201.102C246.88 200.394 247.108 199.812 247.564 199.356C248.032 198.9 248.596 198.672 249.256 198.672C249.904 198.672 250.456 198.9 250.912 199.356C251.38 199.812 251.614 200.394 251.614 201.102C251.614 201.822 251.38 202.41 250.912 202.866C250.444 203.322 249.892 203.55 249.256 203.55ZM262.768 226.536C261.412 226.536 260.17 226.332 259.042 225.924C257.926 225.504 257.02 224.856 256.324 223.98C255.628 223.092 255.238 221.952 255.154 220.56H258.466C258.682 221.76 259.156 222.588 259.888 223.044C260.632 223.488 261.574 223.71 262.714 223.71C263.494 223.71 264.196 223.626 264.82 223.458C265.456 223.29 265.96 223.008 266.332 222.612C266.704 222.216 266.89 221.676 266.89 220.992C266.89 220.464 266.776 220.038 266.548 219.714C266.32 219.39 266.002 219.126 265.594 218.922C265.186 218.706 264.706 218.52 264.154 218.364C263.614 218.208 263.026 218.04 262.39 217.86C261.202 217.512 260.104 217.11 259.096 216.654C258.088 216.186 257.278 215.562 256.666 214.782C256.054 214.002 255.748 212.958 255.748 211.65C255.748 210.042 256.36 208.74 257.584 207.744C258.808 206.736 260.416 206.232 262.408 206.232C263.668 206.232 264.802 206.424 265.81 206.808C266.83 207.192 267.658 207.81 268.294 208.662C268.942 209.502 269.338 210.63 269.482 212.046H266.188C266.068 211.398 265.846 210.852 265.522 210.408C265.21 209.964 264.796 209.628 264.28 209.4C263.764 209.172 263.134 209.058 262.39 209.058C261.766 209.058 261.202 209.148 260.698 209.328C260.194 209.496 259.792 209.766 259.492 210.138C259.192 210.51 259.042 211.002 259.042 211.614C259.042 212.286 259.222 212.826 259.582 213.234C259.942 213.642 260.452 213.984 261.112 214.26C261.772 214.524 262.546 214.788 263.434 215.052C264.118 215.268 264.85 215.496 265.63 215.736C266.41 215.964 267.142 216.27 267.826 216.654C268.522 217.038 269.086 217.554 269.518 218.202C269.962 218.838 270.184 219.672 270.184 220.704C270.184 222.552 269.5 223.986 268.132 225.006C266.764 226.026 264.976 226.536 262.768 226.536ZM281.935 226.5C280.207 226.5 278.689 226.11 277.381 225.33C276.085 224.55 275.071 223.404 274.339 221.892C273.619 220.368 273.259 218.502 273.259 216.294C273.259 214.206 273.643 212.406 274.411 210.894C275.179 209.382 276.223 208.224 277.543 207.42C278.875 206.604 280.363 206.196 282.007 206.196C283.795 206.196 285.337 206.604 286.633 207.42C287.941 208.224 288.949 209.382 289.657 210.894C290.365 212.406 290.719 214.206 290.719 216.294C290.719 218.502 290.323 220.368 289.531 221.892C288.751 223.404 287.695 224.55 286.363 225.33C285.031 226.11 283.555 226.5 281.935 226.5ZM282.007 223.548C283.615 223.548 284.899 222.948 285.859 221.748C286.819 220.548 287.299 218.73 287.299 216.294C287.299 213.966 286.825 212.196 285.877 210.984C284.941 209.76 283.627 209.148 281.935 209.148C280.339 209.148 279.061 209.76 278.101 210.984C277.153 212.196 276.679 213.966 276.679 216.294C276.679 218.646 277.159 220.446 278.119 221.694C279.091 222.93 280.387 223.548 282.007 223.548ZM295.264 226.23V206.574H298.108L298.468 213.99L298.144 212.496C298.3 211.332 298.624 210.276 299.116 209.328C299.62 208.368 300.322 207.606 301.222 207.042C302.134 206.466 303.28 206.178 304.66 206.178C306.484 206.178 307.9 206.742 308.908 207.87C309.928 208.986 310.438 210.654 310.438 212.874V226.23H307.09V213.972C307.09 212.856 306.964 211.956 306.712 211.272C306.472 210.588 306.082 210.09 305.542 209.778C305.014 209.466 304.306 209.31 303.418 209.31C302.35 209.31 301.408 209.604 300.592 210.192C299.788 210.78 299.128 211.59 298.612 212.622V226.23H295.264ZM318.109 213C317.449 213 316.891 212.772 316.435 212.316C315.979 211.86 315.751 211.266 315.751 210.534C315.751 209.814 315.979 209.226 316.435 208.77C316.891 208.314 317.449 208.086 318.109 208.086C318.769 208.086 319.327 208.314 319.783 208.77C320.239 209.226 320.467 209.814 320.467 210.534C320.467 211.266 320.239 211.86 319.783 212.316C319.327 212.772 318.769 213 318.109 213ZM318.109 226.5C317.449 226.5 316.891 226.272 316.435 225.816C315.979 225.36 315.751 224.766 315.751 224.034C315.751 223.314 315.979 222.726 316.435 222.27C316.891 221.814 317.449 221.586 318.109 221.586C318.769 221.586 319.327 221.814 319.783 222.27C320.239 222.726 320.467 223.314 320.467 224.034C320.467 224.766 320.239 225.36 319.783 225.816C319.327 226.272 318.769 226.5 318.109 226.5Z" fill="white"/>
</svg>
