<svg width="53" height="52" viewBox="0 0 53 52" fill="none" xmlns="http://www.w3.org/2000/svg">
<path d="M24.4131 21.3242H28.5537V38.5117H24.4131V21.3242Z" fill="white"/>
<path d="M26.4998 17.1992C27.6889 17.1992 28.6529 16.1989 28.6529 14.9648C28.6529 13.7308 27.6889 12.7305 26.4998 12.7305C25.3107 12.7305 24.3467 13.7308 24.3467 14.9648C24.3467 16.1989 25.3107 17.1992 26.4998 17.1992Z" fill="white"/>
<path d="M26.453 1.51145L26.5 1.51292L26.547 1.51145C32.9369 1.31117 39.1537 3.74526 43.8344 8.29905C48.5055 12.8434 51.2662 19.1304 51.4991 25.7934C51.2662 32.4565 48.5055 38.7435 43.8344 43.2878C39.1537 47.8416 32.9369 50.2757 26.547 50.0754L26.5 50.074L26.453 50.0754C20.0631 50.2757 13.8463 47.8416 9.1656 43.2878C4.49454 38.7435 1.73379 32.4565 1.50087 25.7934C1.73379 19.1304 4.49454 12.8434 9.1656 8.29905C13.8463 3.74526 20.0631 1.31117 26.453 1.51145Z" stroke="white" stroke-width="3"/>
</svg>
