<svg width="67" height="68" viewBox="0 0 67 68" fill="none" xmlns="http://www.w3.org/2000/svg">
<path d="M21.6504 55.8016L17.2806 39.0414L4.95076 51.2059L21.6504 55.8016ZM35.8374 9.20797L35.7362 10.7045L35.7362 10.7045L35.8374 9.20797ZM48.362 13.5833L47.5093 14.8173L48.362 13.5833ZM13.642 45.625C11.5753 41.9311 10.5447 37.7475 10.659 33.5163L7.6601 33.4352C7.53118 38.2066 8.69337 42.9243 11.0239 47.0898L13.642 45.625ZM10.659 33.5163C10.7733 29.285 12.0284 25.1632 14.2915 21.5862L11.7563 19.9822C9.20426 24.0158 7.78902 28.6638 7.6601 33.4352L10.659 33.5163ZM14.2915 21.5862C16.5547 18.0093 19.7419 15.11 23.5165 13.1946L22.159 10.5193C17.9025 12.6792 14.3084 15.9486 11.7563 19.9822L14.2915 21.5862ZM23.5165 13.1946C27.2912 11.2792 31.5131 10.4189 35.7362 10.7045L35.9387 7.71138C31.1764 7.38929 26.4155 8.35942 22.159 10.5193L23.5165 13.1946ZM35.7362 10.7045C39.9594 10.9902 44.027 12.4111 47.5093 14.8173L49.2147 12.3492C45.2878 9.63584 40.7009 8.03348 35.9387 7.71138L35.7362 10.7045ZM47.5093 14.8173C50.9917 17.2235 53.7595 20.5256 55.5204 24.3747L58.2485 23.1267C56.2628 18.7862 53.1416 15.0626 49.2147 12.3492L47.5093 14.8173ZM55.5204 24.3747C57.2813 28.2238 57.9699 32.4771 57.5134 36.6852L60.4959 37.0087C61.0106 32.2634 60.2341 27.4672 58.2485 23.1267L55.5204 24.3747Z" fill="white"/>
</svg>
